<svg class="border shadow-md" viewBox="0 0 1054.24 593.01" style="width: 1054.24px; height: 593.01px;" xmlns="http://www.w3.org/2000/svg" preserveAspectRatio="none"><rect class="bg" id="bg" x="0" y="0" width="1054.24" height="593.01" fill="#ffffff"/><g transform="rotate(0 527.12 296.505)"><path id="-1" d="M -627.12 -54.72 S -323.56 -115.72&#10;            0.00 -54.72 303.56 -97.07&#10;            627.12 -54.72 930.68 -97.07&#10;            1254.24 -54.72 1557.80 -97.07&#10;            1881.36 -54.72 h 110 V 793.01 H -627.12 Z" fill="#A5F3FC"/><path id="0" d="M -627.12 30.00 S -323.56 -12.36&#10;            0.00 30.00 303.56 -46.00&#10;            627.12 30.00 713.24 -22.00&#10;            1254.24 30.00 1557.80 -12.36&#10;            1881.36 30.00 h 110 V 793.01 H -627.12 Z" fill="#90e5f5"/><path id="1" d="M -627.12 114.72 S -364.00 64.72&#10;            0.00 114.72 303.56 42.72&#10;            627.12 114.72 737.24 61.72&#10;            1254.24 114.72 1265.36 72.36&#10;            1881.36 114.72 h 110 V 793.01 H -627.12 Z" fill="#7bd7ee"/><path id="2" d="M -627.12 199.43 S -323.56 127.43&#10;            0.00 199.43 303.56 154.43&#10;            627.12 199.43 923.24 157.07&#10;            1254.24 199.43 1557.80 119.43&#10;            1881.36 199.43 h 110 V 793.01 H -627.12 Z" fill="#66c9e7"/><path id="3" d="M -627.12 284.15 S -323.56 241.79&#10;            0.00 284.15 303.56 241.79&#10;            627.12 284.15 930.68 237.15&#10;            1254.24 284.15 1557.80 209.15&#10;            1881.36 284.15 h 110 V 793.01 H -627.12 Z" fill="#51bbe0"/><path id="4" d="M -627.12 368.86 S -380.00 326.50&#10;            0.00 368.86 303.56 326.50&#10;            627.12 368.86 930.68 326.50&#10;            1254.24 368.86 1433.36 285.86&#10;            1881.36 368.86 h 110 V 793.01 H -627.12 Z" fill="#3cadd9"/><path id="5" d="M -627.12 453.58 S -469.00 411.22&#10;            0.00 453.58 170.12 411.22&#10;            627.12 453.58 926.24 404.58&#10;            1254.24 453.58 1557.80 404.58&#10;            1881.36 453.58 h 110 V 793.01 H -627.12 Z" fill="#279fd2"/><path id="6" d="M -627.12 538.29 S -363.00 495.94&#10;            0.00 538.29 249.12 495.94&#10;            627.12 538.29 849.24 495.94&#10;            1254.24 538.29 1458.36 473.29&#10;            1881.36 538.29 h 110 V 793.01 H -627.12 Z" fill="#1291cb"/></g></svg>