<svg class="border shadow-md" viewBox="0 0 1031.36 580.14" style="width: 1031.36px; height: 580.14px;" xmlns="http://www.w3.org/2000/svg" preserveAspectRatio="none"><rect class="bg" id="bg" x="0" y="0" width="1031.36" height="580.14" fill="#ffffff"/><g transform="rotate(0 515.68 290.07)"><path d="M -615.68 -28.01 S -317.84 -67.01&#10;            0.00 -28.01 297.84 -85.01&#10;            615.68 -28.01 808.36 -57.02&#10;            1231.36 -28.01 1503.04 -57.02&#10;            1847.04 -28.01 h 110 V 780.14 H -615.68 Z" fill="#1E293B" id="-1"/><path d="M -615.68 30.00 S -317.84 0.99&#10;            0.00 30.00 130.68 -24.00&#10;            615.68 30.00 796.36 0.99&#10;            1231.36 30.00 1290.04 -24.00&#10;            1847.04 30.00 h 110 V 780.14 H -615.68 Z" fill="#1c2d41" id="0"/><path d="M -615.68 88.01 S -323.00 34.01&#10;            0.00 88.01 152.68 41.01&#10;            615.68 88.01 913.52 52.01&#10;            1231.36 88.01 1253.04 59.01&#10;            1847.04 88.01 h 110 V 780.14 H -615.68 Z" fill="#1a3147" id="1"/><path d="M -615.68 146.03 S -412.00 117.02&#10;            0.00 146.03 297.84 111.03&#10;            615.68 146.03 783.36 101.03&#10;            1231.36 146.03 1522.04 90.03&#10;            1847.04 146.03 h 110 V 780.14 H -615.68 Z" fill="#18354d" id="2"/><path d="M -615.68 204.04 S -317.84 167.04&#10;            0.00 204.04 297.84 175.03&#10;            615.68 204.04 913.52 171.04&#10;            1231.36 204.04 1529.20 164.04&#10;            1847.04 204.04 h 110 V 780.14 H -615.68 Z" fill="#163953" id="3"/><path d="M -615.68 262.06 S -381.00 233.05&#10;            0.00 262.06 297.84 233.05&#10;            615.68 262.06 718.36 233.05&#10;            1231.36 262.06 1529.20 226.06&#10;            1847.04 262.06 h 110 V 780.14 H -615.68 Z" fill="#143d59" id="4"/><path d="M -615.68 320.07 S -388.00 291.06&#10;            0.00 320.07 297.84 291.06&#10;            615.68 320.07 913.52 291.06&#10;            1231.36 320.07 1529.20 291.06&#10;            1847.04 320.07 h 110 V 780.14 H -615.68 Z" fill="#12415f" id="5"/><path d="M -615.68 378.08 S -579.00 349.08&#10;            0.00 378.08 297.84 337.08&#10;            615.68 378.08 913.52 349.08&#10;            1231.36 378.08 1529.20 349.08&#10;            1847.04 378.08 h 110 V 780.14 H -615.68 Z" fill="#104565" id="6"/><path d="M -615.68 436.10 S -363.00 388.10&#10;            0.00 436.10 297.84 402.10&#10;            615.68 436.10 913.52 407.09&#10;            1231.36 436.10 1364.04 407.09&#10;            1847.04 436.10 h 110 V 780.14 H -615.68 Z" fill="#0e496b" id="7"/><path d="M -615.68 494.11 S -484.00 465.10&#10;            0.00 494.11 297.84 465.10&#10;            615.68 494.11 913.52 438.11&#10;            1231.36 494.11 1529.20 439.11&#10;            1847.04 494.11 h 110 V 780.14 H -615.68 Z" fill="#0c4d71" id="8"/><path d="M -615.68 552.13 S -317.84 523.12&#10;            0.00 552.13 222.68 523.12&#10;            615.68 552.13 913.52 523.12&#10;            1231.36 552.13 1370.04 497.13&#10;            1847.04 552.13 h 110 V 780.14 H -615.68 Z" fill="#0a5177" id="9"/></g></svg>