<svg xmlns="http://www.w3.org/2000/svg" version="1.1" xmlns:xlink="http://www.w3.org/1999/xlink" xmlns:svgjs="http://svgjs.dev/svgjs" width="2000" height="2000" preserveAspectRatio="none" viewBox="0 0 2000 2000"><g mask="url(&quot;#SvgjsMask1017&quot;)" fill="none"><rect width="2000" height="2000" x="0" y="0" fill="rgba(100, 116, 139, 1)"></rect><path d="M0,661.8C143.108,670.14,297.817,728.367,421.296,655.55C545.309,582.418,575.06,420.869,632.455,288.833C688.761,159.302,752.051,32.92,753.341,-108.314C754.772,-264.985,753.898,-446.945,640.161,-554.703C526.575,-662.318,341.268,-607.794,188.842,-643.138C47.906,-675.818,-77.613,-769.146,-221.546,-754.515C-379.334,-738.476,-536.588,-674.694,-644.466,-558.433C-753.844,-440.555,-781.631,-274.6,-813.167,-116.916C-846.349,48.995,-917.305,233.822,-832.157,380.033C-747.099,526.089,-550.967,554.01,-390.877,608.216C-263.738,651.265,-134.002,653.99,0,661.8" fill="#505d6f"></path><path d="M2000 2956.8C2183.206 2953.029 2392.179 2938.1710000000003 2516.279 2803.346 2638.496 2670.566 2560.792 2453.626 2620.047 2283.166 2671.252 2135.864 2861.189 2033.723 2837.3869999999997 1879.602 2813.549 1725.251 2623.435 1665.083 2508.293 1559.561 2408.313 1467.934 2330.237 1353.4389999999999 2205.412 1300.429 2071.217 1243.44 1919.339 1207.828 1779.841 1250.2089999999998 1640.789 1292.454 1541.051 1410.7179999999998 1455.562 1528.242 1375.368 1638.487 1349.875 1770.967 1306.92 1900.35 1253.824 2060.279 1144.4009999999998 2211.427 1173.652 2377.381 1205.346 2557.195 1320.383 2720.057 1469.88 2824.882 1622.058 2931.5860000000002 1814.179 2960.625 2000 2956.8" fill="#7d8ca2"></path></g><defs><mask id="SvgjsMask1017"><rect width="2000" height="2000" fill="#ffffff"></rect></mask></defs></svg>