<svg xmlns="http://www.w3.org/2000/svg" version="1.1" xmlns:xlink="http://www.w3.org/1999/xlink" xmlns:svgjs="http://svgjs.dev/svgjs" width="1000" height="500" preserveAspectRatio="none" viewBox="0 0 1000 500"><g mask="url(&quot;#SvgjsMask1004&quot;)" fill="none"><rect width="1000" height="500" x="0" y="0" fill="rgba(15, 23, 42, 1)"></rect><path d="M927.14 186.33L927.14 188.92L935.57 188.92L935.57 186.33zM930.99 187.63 a4.58 4.58 0 1 0 9.16 0 a4.58 4.58 0 1 0 -9.16 0zM923.88 205.35L922.88 207.74L930.01 210.69L931 208.3zM925.92 209.49 a4.58 4.58 0 1 0 9.16 0 a4.58 4.58 0 1 0 -9.16 0zM913.58 221.66L911.75 223.49L925.24 236.98L927.07 235.15zM921.57 236.06 a4.58 4.58 0 1 0 9.16 0 a4.58 4.58 0 1 0 -9.16 0zM897.83 232.79L895.44 233.78L902.46 250.75L904.85 249.76zM899.08 250.25 a4.58 4.58 0 1 0 9.16 0 a4.58 4.58 0 1 0 -9.16 0zM879.01 237.05L876.42 237.05L876.42 253.36L879.01 253.36zM873.14 253.36 a4.58 4.58 0 1 0 9.16 0 a4.58 4.58 0 1 0 -9.16 0zM860 233.78L857.61 232.79L853.31 243.17L855.7 244.16zM849.93 243.66 a4.58 4.58 0 1 0 9.16 0 a4.58 4.58 0 1 0 -9.16 0zM843.69 223.49L841.86 221.66L830.39 233.13L832.22 234.96zM826.72 234.05 a4.58 4.58 0 1 0 9.16 0 a4.58 4.58 0 1 0 -9.16 0zM832.55 207.74L831.56 205.35L813.57 212.8L814.57 215.19zM809.49 213.99 a4.58 4.58 0 1 0 9.16 0 a4.58 4.58 0 1 0 -9.16 0zM828.3 188.92L828.3 186.33L806.59 186.33L806.59 188.92zM802.01 187.63 a4.58 4.58 0 1 0 9.16 0 a4.58 4.58 0 1 0 -9.16 0zM831.56 169.91L832.55 167.52L816.06 160.69L815.07 163.08zM810.99 161.88 a4.58 4.58 0 1 0 9.16 0 a4.58 4.58 0 1 0 -9.16 0zM841.86 153.6L843.69 151.77L828.24 136.32L826.41 138.15zM822.75 137.24 a4.58 4.58 0 1 0 9.16 0 a4.58 4.58 0 1 0 -9.16 0zM857.61 142.46L860 141.47L852.03 122.22L849.63 123.21zM846.25 122.71 a4.58 4.58 0 1 0 9.16 0 a4.58 4.58 0 1 0 -9.16 0zM876.42 138.21L879.01 138.21L879.01 130.51L876.42 130.51zM873.14 130.51 a4.58 4.58 0 1 0 9.16 0 a4.58 4.58 0 1 0 -9.16 0zM895.44 141.47L897.83 142.46L902.34 131.57L899.95 130.58zM896.56 131.08 a4.58 4.58 0 1 0 9.16 0 a4.58 4.58 0 1 0 -9.16 0zM911.75 151.77L913.58 153.6L920.6 146.58L918.77 144.75zM915.1 145.67 a4.58 4.58 0 1 0 9.16 0 a4.58 4.58 0 1 0 -9.16 0zM922.88 167.52L923.88 169.91L933.97 165.73L932.98 163.34zM928.9 164.53 a4.58 4.58 0 1 0 9.16 0 a4.58 4.58 0 1 0 -9.16 0zM828.28 187.63 a49.44 49.44 0 1 0 98.88 0 a49.44 49.44 0 1 0 -98.88 0z" fill="rgba(255, 59, 63, 1)"></path><path d="M927.13 186.02 A48.44 48.44 0 0 1 854.5 231.28M854.5 231.28 A98.88 98.88 0 0 0 927.13 186.02" fill="#fb0005" fill-rule="nonzero"></path><path d="M874.89 140.29 a1.98 1.98 0 1 0 3.96 0 a1.98 1.98 0 1 0 -3.96 0zM867.73 223.74 a9.89 9.89 0 1 0 19.78 0 a9.89 9.89 0 1 0 -19.78 0zM847.27 154.61 a9.89 9.89 0 1 0 19.78 0 a9.89 9.89 0 1 0 -19.78 0zM852.63 183.87 a9.39 9.39 0 1 0 18.78 0 a9.39 9.39 0 1 0 -18.78 0zM892.62 173.1 a9.89 9.89 0 1 0 19.78 0 a9.89 9.89 0 1 0 -19.78 0zM897.54 220.94 a3.96 3.96 0 1 0 7.92 0 a3.96 3.96 0 1 0 -7.92 0zM883.99 188.59 a2.47 2.47 0 1 0 4.94 0 a2.47 2.47 0 1 0 -4.94 0zM898.97 198.57 a5.44 5.44 0 1 0 10.88 0 a5.44 5.44 0 1 0 -10.88 0zM840.43 217.56 a6.43 6.43 0 1 0 12.86 0 a6.43 6.43 0 1 0 -12.86 0zM830.52 173.66 a3.96 3.96 0 1 0 7.92 0 a3.96 3.96 0 1 0 -7.92 0z" fill="#fb0005" fill-rule="nonzero"></path><path d="M317.17 114.15L317.17 116.73L327.44 116.73L327.44 114.15zM322.86 115.44 a4.58 4.58 0 1 0 9.16 0 a4.58 4.58 0 1 0 -9.16 0zM313.9 133.16L312.91 135.55L328.53 142.02L329.52 139.62zM324.44 140.82 a4.58 4.58 0 1 0 9.16 0 a4.58 4.58 0 1 0 -9.16 0zM303.61 149.47L301.78 151.3L306.13 155.66L307.96 153.83zM302.47 154.74 a4.58 4.58 0 1 0 9.16 0 a4.58 4.58 0 1 0 -9.16 0zM287.86 160.6L285.46 161.6L291.64 176.51L294.03 175.52zM288.26 176.01 a4.58 4.58 0 1 0 9.16 0 a4.58 4.58 0 1 0 -9.16 0zM269.04 164.86L266.45 164.86L266.45 172.71L269.04 172.71zM263.17 172.71 a4.58 4.58 0 1 0 9.16 0 a4.58 4.58 0 1 0 -9.16 0zM250.03 161.6L247.64 160.6L243.4 170.82L245.8 171.81zM240.02 171.32 a4.58 4.58 0 1 0 9.16 0 a4.58 4.58 0 1 0 -9.16 0zM233.71 151.3L231.88 149.47L226.55 154.8L228.38 156.63zM222.89 155.72 a4.58 4.58 0 1 0 9.16 0 a4.58 4.58 0 1 0 -9.16 0zM222.58 135.55L221.59 133.16L213.3 136.59L214.29 138.98zM209.22 137.79 a4.58 4.58 0 1 0 9.16 0 a4.58 4.58 0 1 0 -9.16 0zM218.32 116.73L218.32 114.15L212.18 114.15L212.18 116.73zM207.6 115.44 a4.58 4.58 0 1 0 9.16 0 a4.58 4.58 0 1 0 -9.16 0zM221.59 97.72L222.58 95.33L205.64 88.31L204.65 90.7zM200.56 89.51 a4.58 4.58 0 1 0 9.16 0 a4.58 4.58 0 1 0 -9.16 0zM231.88 81.41L233.71 79.58L218.18 64.04L216.35 65.87zM212.68 64.96 a4.58 4.58 0 1 0 9.16 0 a4.58 4.58 0 1 0 -9.16 0zM247.64 70.27L250.03 69.28L241.95 49.79L239.56 50.78zM236.18 50.28 a4.58 4.58 0 1 0 9.16 0 a4.58 4.58 0 1 0 -9.16 0zM266.45 66.02L269.04 66.02L269.04 42.5L266.45 42.5zM263.17 42.5 a4.58 4.58 0 1 0 9.16 0 a4.58 4.58 0 1 0 -9.16 0zM285.46 69.28L287.86 70.27L296.82 48.63L294.43 47.64zM291.05 48.13 a4.58 4.58 0 1 0 9.16 0 a4.58 4.58 0 1 0 -9.16 0zM301.78 79.58L303.61 81.41L315.16 69.85L313.33 68.02zM309.67 68.94 a4.58 4.58 0 1 0 9.16 0 a4.58 4.58 0 1 0 -9.16 0zM312.91 95.33L313.9 97.72L323.73 93.65L322.74 91.26zM318.66 92.45 a4.58 4.58 0 1 0 9.16 0 a4.58 4.58 0 1 0 -9.16 0zM218.31 115.44 a49.44 49.44 0 1 0 98.88 0 a49.44 49.44 0 1 0 -98.88 0z" fill="rgba(255, 59, 63, 1)"></path><path d="M224.93 90.73 A48.44 48.44 0 0 1 310.51 90.62M310.51 90.62 A98.88 98.88 0 0 0 224.93 90.73" fill="#fb0005" fill-rule="nonzero"></path><path d="M270.17 105.14 a9.89 9.89 0 1 0 19.78 0 a9.89 9.89 0 1 0 -19.78 0zM222.5 134.15 a3.96 3.96 0 1 0 7.92 0 a3.96 3.96 0 1 0 -7.92 0zM307.15 118.54 a4.94 4.94 0 1 0 9.88 0 a4.94 4.94 0 1 0 -9.88 0zM246.65 75.72 a6.92 6.92 0 1 0 13.84 0 a6.92 6.92 0 1 0 -13.84 0zM287.56 130.36 a6.43 6.43 0 1 0 12.86 0 a6.43 6.43 0 1 0 -12.86 0zM237.37 123.58 a5.93 5.93 0 1 0 11.86 0 a5.93 5.93 0 1 0 -11.86 0zM249.49 107.23 a2.47 2.47 0 1 0 4.94 0 a2.47 2.47 0 1 0 -4.94 0zM299.85 101.46 a2.97 2.97 0 1 0 5.94 0 a2.97 2.97 0 1 0 -5.94 0zM250.6 141.99 a7.91 7.91 0 1 0 15.82 0 a7.91 7.91 0 1 0 -15.82 0zM218.38 113.56 a4.45 4.45 0 1 0 8.9 0 a4.45 4.45 0 1 0 -8.9 0z" fill="#fb0005" fill-rule="nonzero"></path><path d="M601.26 325.76L601.26 328.34L608.55 328.34L608.55 325.76zM603.97 327.05 a4.58 4.58 0 1 0 9.16 0 a4.58 4.58 0 1 0 -9.16 0zM598 344.77L597.01 347.16L608.69 352L609.68 349.61zM604.61 350.81 a4.58 4.58 0 1 0 9.16 0 a4.58 4.58 0 1 0 -9.16 0zM587.7 361.08L585.87 362.91L600.78 377.82L602.61 375.99zM597.11 376.9 a4.58 4.58 0 1 0 9.16 0 a4.58 4.58 0 1 0 -9.16 0zM571.95 372.22L569.56 373.21L575.58 387.74L577.97 386.75zM572.19 387.24 a4.58 4.58 0 1 0 9.16 0 a4.58 4.58 0 1 0 -9.16 0zM553.14 376.47L550.55 376.47L550.55 384.4L553.14 384.4zM547.26 384.4 a4.58 4.58 0 1 0 9.16 0 a4.58 4.58 0 1 0 -9.16 0zM534.12 373.21L531.73 372.22L523.36 392.44L525.75 393.43zM519.97 392.94 a4.58 4.58 0 1 0 9.16 0 a4.58 4.58 0 1 0 -9.16 0zM517.81 362.91L515.98 361.08L509.18 367.88L511.01 369.71zM505.52 368.79 a4.58 4.58 0 1 0 9.16 0 a4.58 4.58 0 1 0 -9.16 0zM506.68 347.16L505.69 344.77L499.65 347.27L500.64 349.66zM495.57 348.46 a4.58 4.58 0 1 0 9.16 0 a4.58 4.58 0 1 0 -9.16 0zM502.42 328.34L502.42 325.76L480.18 325.76L480.18 328.34zM475.6 327.05 a4.58 4.58 0 1 0 9.16 0 a4.58 4.58 0 1 0 -9.16 0zM505.69 309.33L506.68 306.94L488.64 299.47L487.65 301.86zM483.57 300.67 a4.58 4.58 0 1 0 9.16 0 a4.58 4.58 0 1 0 -9.16 0zM515.98 293.02L517.81 291.19L512.75 286.13L510.92 287.96zM507.25 287.04 a4.58 4.58 0 1 0 9.16 0 a4.58 4.58 0 1 0 -9.16 0zM531.73 281.89L534.12 280.89L527.98 266.06L525.59 267.05zM522.2 266.55 a4.58 4.58 0 1 0 9.16 0 a4.58 4.58 0 1 0 -9.16 0zM550.55 277.63L553.14 277.63L553.14 271.28L550.55 271.28zM547.26 271.28 a4.58 4.58 0 1 0 9.16 0 a4.58 4.58 0 1 0 -9.16 0zM569.56 280.89L571.95 281.89L580.72 260.72L578.33 259.73zM574.94 260.22 a4.58 4.58 0 1 0 9.16 0 a4.58 4.58 0 1 0 -9.16 0zM585.87 291.19L587.7 293.02L597 283.73L595.16 281.9zM591.5 282.81 a4.58 4.58 0 1 0 9.16 0 a4.58 4.58 0 1 0 -9.16 0zM597.01 306.94L598 309.33L613.61 302.87L612.62 300.47zM608.54 301.67 a4.58 4.58 0 1 0 9.16 0 a4.58 4.58 0 1 0 -9.16 0zM502.4 327.05 a49.44 49.44 0 1 0 98.88 0 a49.44 49.44 0 1 0 -98.88 0z" fill="rgba(255, 59, 63, 1)"></path><path d="M598.24 344.12 A48.44 48.44 0 0 1 513.92 358.78M513.92 358.78 A98.88 98.88 0 0 0 598.24 344.12" fill="#fb0005" fill-rule="nonzero"></path><path d="M560.19 293.74 a9.89 9.89 0 1 0 19.78 0 a9.89 9.89 0 1 0 -19.78 0zM578.93 332.92 a9.89 9.89 0 1 0 19.78 0 a9.89 9.89 0 1 0 -19.78 0zM549.97 342.45 a9.89 9.89 0 1 0 19.78 0 a9.89 9.89 0 1 0 -19.78 0zM545.02 295.85 a2.47 2.47 0 1 0 4.94 0 a2.47 2.47 0 1 0 -4.94 0zM537.04 363.04 a6.43 6.43 0 1 0 12.86 0 a6.43 6.43 0 1 0 -12.86 0zM525.75 348.73 a3.46 3.46 0 1 0 6.92 0 a3.46 3.46 0 1 0 -6.92 0zM520.08 321.84 a9.89 9.89 0 1 0 19.78 0 a9.89 9.89 0 1 0 -19.78 0zM563.68 316.43 a2.97 2.97 0 1 0 5.94 0 a2.97 2.97 0 1 0 -5.94 0zM507.6 309.11 a2.97 2.97 0 1 0 5.94 0 a2.97 2.97 0 1 0 -5.94 0zM579 361.84 a2.97 2.97 0 1 0 5.94 0 a2.97 2.97 0 1 0 -5.94 0z" fill="#fb0005" fill-rule="nonzero"></path><path d="M699.11 82.82L699.11 85.41L717.55 85.41L717.55 82.82zM712.97 84.12 a4.58 4.58 0 1 0 9.16 0 a4.58 4.58 0 1 0 -9.16 0zM695.84 101.83L694.85 104.22L712.84 111.68L713.83 109.28zM708.75 110.48 a4.58 4.58 0 1 0 9.16 0 a4.58 4.58 0 1 0 -9.16 0zM685.55 118.15L683.72 119.98L697.93 134.19L699.76 132.36zM694.26 133.28 a4.58 4.58 0 1 0 9.16 0 a4.58 4.58 0 1 0 -9.16 0zM669.79 129.28L667.4 130.27L670.46 137.66L672.85 136.67zM667.08 137.17 a4.58 4.58 0 1 0 9.16 0 a4.58 4.58 0 1 0 -9.16 0zM650.98 133.54L648.39 133.54L648.39 155.45L650.98 155.45zM645.1 155.45 a4.58 4.58 0 1 0 9.16 0 a4.58 4.58 0 1 0 -9.16 0zM631.97 130.27L629.57 129.28L622.9 145.39L625.29 146.38zM619.52 145.89 a4.58 4.58 0 1 0 9.16 0 a4.58 4.58 0 1 0 -9.16 0zM615.65 119.98L613.82 118.15L601.14 130.83L602.97 132.66zM597.47 131.75 a4.58 4.58 0 1 0 9.16 0 a4.58 4.58 0 1 0 -9.16 0zM604.52 104.22L603.53 101.83L588.12 108.22L589.11 110.61zM584.03 109.41 a4.58 4.58 0 1 0 9.16 0 a4.58 4.58 0 1 0 -9.16 0zM600.26 85.41L600.26 82.82L587.14 82.82L587.14 85.41zM582.56 84.12 a4.58 4.58 0 1 0 9.16 0 a4.58 4.58 0 1 0 -9.16 0zM603.53 66.4L604.52 64.01L597.16 60.96L596.17 63.35zM592.09 62.16 a4.58 4.58 0 1 0 9.16 0 a4.58 4.58 0 1 0 -9.16 0zM613.82 50.08L615.65 48.25L603.25 35.85L601.42 37.68zM597.75 36.77 a4.58 4.58 0 1 0 9.16 0 a4.58 4.58 0 1 0 -9.16 0zM629.57 38.95L631.97 37.96L627.56 27.33L625.17 28.32zM621.79 27.82 a4.58 4.58 0 1 0 9.16 0 a4.58 4.58 0 1 0 -9.16 0zM648.39 34.69L650.98 34.69L650.98 23L648.39 23zM645.1 23 a4.58 4.58 0 1 0 9.16 0 a4.58 4.58 0 1 0 -9.16 0zM667.4 37.96L669.79 38.95L675.79 24.47L673.4 23.48zM670.01 23.98 a4.58 4.58 0 1 0 9.16 0 a4.58 4.58 0 1 0 -9.16 0zM683.72 48.25L685.55 50.08L701.48 34.14L699.65 32.31zM695.99 33.23 a4.58 4.58 0 1 0 9.16 0 a4.58 4.58 0 1 0 -9.16 0zM694.85 64.01L695.84 66.4L707.39 61.61L706.4 59.22zM702.31 60.42 a4.58 4.58 0 1 0 9.16 0 a4.58 4.58 0 1 0 -9.16 0zM600.24 84.12 a49.44 49.44 0 1 0 98.88 0 a49.44 49.44 0 1 0 -98.88 0z" fill="rgba(255, 59, 63, 1)"></path><path d="M604.03 103.08 A48.44 48.44 0 0 1 655.98 35.08M655.98 35.08 A98.88 98.88 0 0 0 604.03 103.08" fill="#fb0005" fill-rule="nonzero"></path><path d="M646.28 89.26 a9.89 9.89 0 1 0 19.78 0 a9.89 9.89 0 1 0 -19.78 0zM675.84 57.69 a6.92 6.92 0 1 0 13.84 0 a6.92 6.92 0 1 0 -13.84 0zM644.41 42.79 a7.91 7.91 0 1 0 15.82 0 a7.91 7.91 0 1 0 -15.82 0zM614.16 54.13 a8.9 8.9 0 1 0 17.8 0 a8.9 8.9 0 1 0 -17.8 0zM629.97 98.65 a3.96 3.96 0 1 0 7.92 0 a3.96 3.96 0 1 0 -7.92 0zM627.51 121.24 a8.4 8.4 0 1 0 16.8 0 a8.4 8.4 0 1 0 -16.8 0zM679.69 89.19 a9.39 9.39 0 1 0 18.78 0 a9.39 9.39 0 1 0 -18.78 0zM676.91 109.09 a2.47 2.47 0 1 0 4.94 0 a2.47 2.47 0 1 0 -4.94 0zM600.76 88.9 a5.44 5.44 0 1 0 10.88 0 a5.44 5.44 0 1 0 -10.88 0zM621.29 84.61 a1.98 1.98 0 1 0 3.96 0 a1.98 1.98 0 1 0 -3.96 0z" fill="#fb0005" fill-rule="nonzero"></path><path d="M120.16 294.46L120.16 296.73L125.96 296.73L125.96 294.46zM121.95 295.59 a4.01 4.01 0 1 0 8.02 0 a4.01 4.01 0 1 0 -8.02 0zM117.3 311.1L116.44 313.19L122.16 315.56L123.03 313.47zM118.59 314.51 a4.01 4.01 0 1 0 8.02 0 a4.01 4.01 0 1 0 -8.02 0zM108.3 325.37L106.7 326.97L120.12 340.39L121.72 338.79zM116.91 339.59 a4.01 4.01 0 1 0 8.02 0 a4.01 4.01 0 1 0 -8.02 0zM94.51 335.11L92.42 335.98L99.51 353.11L101.61 352.24zM96.55 352.68 a4.01 4.01 0 1 0 8.02 0 a4.01 4.01 0 1 0 -8.02 0zM78.05 338.84L75.78 338.84L75.78 349.58L78.05 349.58zM72.91 349.58 a4.01 4.01 0 1 0 8.02 0 a4.01 4.01 0 1 0 -8.02 0zM61.41 335.98L59.32 335.11L52.69 351.13L54.78 352zM49.72 351.57 a4.01 4.01 0 1 0 8.02 0 a4.01 4.01 0 1 0 -8.02 0zM47.14 326.97L45.54 325.37L39.29 331.62L40.89 333.22zM36.08 332.42 a4.01 4.01 0 1 0 8.02 0 a4.01 4.01 0 1 0 -8.02 0zM37.4 313.19L36.53 311.1L17.96 318.79L18.83 320.88zM14.38 319.83 a4.01 4.01 0 1 0 8.02 0 a4.01 4.01 0 1 0 -8.02 0zM33.67 296.73L33.67 294.46L24.09 294.46L24.09 296.73zM20.08 295.59 a4.01 4.01 0 1 0 8.02 0 a4.01 4.01 0 1 0 -8.02 0zM36.53 280.09L37.4 278L27.55 273.92L26.68 276.01zM23.1 274.96 a4.01 4.01 0 1 0 8.02 0 a4.01 4.01 0 1 0 -8.02 0zM45.54 265.81L47.14 264.21L32.1 249.17L30.5 250.77zM27.29 249.97 a4.01 4.01 0 1 0 8.02 0 a4.01 4.01 0 1 0 -8.02 0zM59.32 256.07L61.41 255.21L53.88 237.02L51.79 237.89zM48.83 237.46 a4.01 4.01 0 1 0 8.02 0 a4.01 4.01 0 1 0 -8.02 0zM75.78 252.35L78.05 252.35L78.05 245.66L75.78 245.66zM72.91 245.66 a4.01 4.01 0 1 0 8.02 0 a4.01 4.01 0 1 0 -8.02 0zM92.42 255.21L94.51 256.07L99.09 245.03L96.99 244.17zM94.03 244.6 a4.01 4.01 0 1 0 8.02 0 a4.01 4.01 0 1 0 -8.02 0zM106.7 264.21L108.3 265.81L121.72 252.39L120.12 250.79zM116.91 251.59 a4.01 4.01 0 1 0 8.02 0 a4.01 4.01 0 1 0 -8.02 0zM116.44 278L117.3 280.09L136.2 272.26L135.33 270.17zM131.75 271.22 a4.01 4.01 0 1 0 8.02 0 a4.01 4.01 0 1 0 -8.02 0zM33.66 295.59 a43.26 43.26 0 1 0 86.52 0 a43.26 43.26 0 1 0 -86.52 0z" fill="rgba(255, 59, 63, 1)"></path><path d="M106.39 327.26 A42.26 42.26 0 0 1 34.78 305.38M34.78 305.38 A86.52 86.52 0 0 0 106.39 327.26" fill="#fb0005" fill-rule="nonzero"></path><path d="M114.53 300.18 a2.6 2.6 0 1 0 5.2 0 a2.6 2.6 0 1 0 -5.2 0zM88.56 284.86 a8.65 8.65 0 1 0 17.3 0 a8.65 8.65 0 1 0 -17.3 0zM53.03 261.95 a4.33 4.33 0 1 0 8.66 0 a4.33 4.33 0 1 0 -8.66 0zM50.24 292.06 a8.65 8.65 0 1 0 17.3 0 a8.65 8.65 0 1 0 -17.3 0zM55.1 316.7 a7.35 7.35 0 1 0 14.7 0 a7.35 7.35 0 1 0 -14.7 0zM77.71 310.49 a5.19 5.19 0 1 0 10.38 0 a5.19 5.19 0 1 0 -10.38 0zM86.97 328.02 a6.06 6.06 0 1 0 12.12 0 a6.06 6.06 0 1 0 -12.12 0zM70.55 259.99 a4.76 4.76 0 1 0 9.52 0 a4.76 4.76 0 1 0 -9.52 0zM102.11 265.3 a2.16 2.16 0 1 0 4.32 0 a2.16 2.16 0 1 0 -4.32 0zM44.62 307.4 a2.16 2.16 0 1 0 4.32 0 a2.16 2.16 0 1 0 -4.32 0z" fill="#fb0005" fill-rule="nonzero"></path><path d="M415.59 422.72L415.59 424.98L421.08 424.98L421.08 422.72zM417.07 423.85 a4.01 4.01 0 1 0 8.02 0 a4.01 4.01 0 1 0 -8.02 0zM412.73 439.35L411.87 441.45L421.62 445.49L422.49 443.39zM418.05 444.44 a4.01 4.01 0 1 0 8.02 0 a4.01 4.01 0 1 0 -8.02 0zM403.73 453.63L402.13 455.23L413.46 466.56L415.06 464.96zM410.25 465.76 a4.01 4.01 0 1 0 8.02 0 a4.01 4.01 0 1 0 -8.02 0zM389.94 463.37L387.85 464.24L393.36 477.54L395.45 476.67zM390.4 477.11 a4.01 4.01 0 1 0 8.02 0 a4.01 4.01 0 1 0 -8.02 0zM373.48 467.09L371.22 467.09L371.22 472.46L373.48 472.46zM368.34 472.46 a4.01 4.01 0 1 0 8.02 0 a4.01 4.01 0 1 0 -8.02 0zM356.84 464.24L354.75 463.37L351.89 470.28L353.98 471.15zM348.93 470.71 a4.01 4.01 0 1 0 8.02 0 a4.01 4.01 0 1 0 -8.02 0zM342.57 455.23L340.97 453.63L333.25 461.34L334.85 462.94zM330.04 462.14 a4.01 4.01 0 1 0 8.02 0 a4.01 4.01 0 1 0 -8.02 0zM332.83 441.45L331.96 439.35L318.59 444.89L319.46 446.98zM315.02 445.94 a4.01 4.01 0 1 0 8.02 0 a4.01 4.01 0 1 0 -8.02 0zM329.1 424.98L329.1 422.72L314.97 422.72L314.97 424.98zM310.96 423.85 a4.01 4.01 0 1 0 8.02 0 a4.01 4.01 0 1 0 -8.02 0zM331.96 408.35L332.83 406.25L327.55 404.07L326.69 406.16zM323.11 405.12 a4.01 4.01 0 1 0 8.02 0 a4.01 4.01 0 1 0 -8.02 0zM340.97 394.07L342.57 392.47L328.65 378.55L327.04 380.15zM323.84 379.35 a4.01 4.01 0 1 0 8.02 0 a4.01 4.01 0 1 0 -8.02 0zM354.75 384.33L356.84 383.46L351.4 370.33L349.31 371.19zM346.35 370.76 a4.01 4.01 0 1 0 8.02 0 a4.01 4.01 0 1 0 -8.02 0zM371.22 380.6L373.48 380.6L373.48 366.43L371.22 366.43zM368.34 366.43 a4.01 4.01 0 1 0 8.02 0 a4.01 4.01 0 1 0 -8.02 0zM387.85 383.46L389.94 384.33L394.78 372.65L392.69 371.79zM389.72 372.22 a4.01 4.01 0 1 0 8.02 0 a4.01 4.01 0 1 0 -8.02 0zM402.13 392.47L403.73 394.07L413.25 384.55L411.65 382.95zM408.44 383.75 a4.01 4.01 0 1 0 8.02 0 a4.01 4.01 0 1 0 -8.02 0zM411.87 406.25L412.73 408.35L424.13 403.63L423.26 401.54zM419.68 402.58 a4.01 4.01 0 1 0 8.02 0 a4.01 4.01 0 1 0 -8.02 0zM329.09 423.85 a43.26 43.26 0 1 0 86.52 0 a43.26 43.26 0 1 0 -86.52 0z" fill="rgba(255, 59, 63, 1)"></path><path d="M406.57 450.32 A42.26 42.26 0 0 1 332.35 440.33M332.35 440.33 A86.52 86.52 0 0 0 406.57 450.32" fill="#fb0005" fill-rule="nonzero"></path><path d="M334.26 442.95 a2.16 2.16 0 1 0 4.32 0 a2.16 2.16 0 1 0 -4.32 0zM357.71 413.81 a8.65 8.65 0 1 0 17.3 0 a8.65 8.65 0 1 0 -17.3 0zM391.16 408.97 a8.65 8.65 0 1 0 17.3 0 a8.65 8.65 0 1 0 -17.3 0zM366.83 446.44 a8.65 8.65 0 1 0 17.3 0 a8.65 8.65 0 1 0 -17.3 0zM329.19 423.27 a4.76 4.76 0 1 0 9.52 0 a4.76 4.76 0 1 0 -9.52 0zM342.4 394.04 a2.6 2.6 0 1 0 5.2 0 a2.6 2.6 0 1 0 -5.2 0zM354.64 456.56 a3.03 3.03 0 1 0 6.06 0 a3.03 3.03 0 1 0 -6.06 0zM392.57 440.75 a8.22 8.22 0 1 0 16.44 0 a8.22 8.22 0 1 0 -16.44 0zM363.58 386.99 a6.06 6.06 0 1 0 12.12 0 a6.06 6.06 0 1 0 -12.12 0zM378.87 427.05 a3.03 3.03 0 1 0 6.06 0 a3.03 3.03 0 1 0 -6.06 0z" fill="#fb0005" fill-rule="nonzero"></path><path d="M931.47 404.23L931.47 406.82L942.64 406.82L942.64 404.23zM938.06 405.52 a4.58 4.58 0 1 0 9.16 0 a4.58 4.58 0 1 0 -9.16 0zM928.2 423.24L927.21 425.63L939.23 430.61L940.22 428.22zM935.15 429.41 a4.58 4.58 0 1 0 9.16 0 a4.58 4.58 0 1 0 -9.16 0zM917.91 439.55L916.08 441.39L921.04 446.34L922.87 444.51zM917.37 445.43 a4.58 4.58 0 1 0 9.16 0 a4.58 4.58 0 1 0 -9.16 0zM902.16 450.69L899.77 451.68L907.31 469.89L909.7 468.9zM903.92 469.39 a4.58 4.58 0 1 0 9.16 0 a4.58 4.58 0 1 0 -9.16 0zM883.34 454.95L880.75 454.95L880.75 462.61L883.34 462.61zM877.47 462.61 a4.58 4.58 0 1 0 9.16 0 a4.58 4.58 0 1 0 -9.16 0zM864.33 451.68L861.94 450.69L858.26 459.57L860.65 460.56zM854.88 460.06 a4.58 4.58 0 1 0 9.16 0 a4.58 4.58 0 1 0 -9.16 0zM848.02 441.39L846.19 439.55L830.61 455.13L832.44 456.96zM826.95 456.04 a4.58 4.58 0 1 0 9.16 0 a4.58 4.58 0 1 0 -9.16 0zM836.88 425.63L835.89 423.24L825.03 427.74L826.02 430.13zM820.94 428.94 a4.58 4.58 0 1 0 9.16 0 a4.58 4.58 0 1 0 -9.16 0zM832.62 406.82L832.62 404.23L818.14 404.23L818.14 406.82zM813.56 405.52 a4.58 4.58 0 1 0 9.16 0 a4.58 4.58 0 1 0 -9.16 0zM835.89 387.8L836.88 385.41L818.55 377.82L817.56 380.21zM813.48 379.02 a4.58 4.58 0 1 0 9.16 0 a4.58 4.58 0 1 0 -9.16 0zM846.19 371.49L848.02 369.66L841.77 363.42L839.94 365.25zM836.28 364.33 a4.58 4.58 0 1 0 9.16 0 a4.58 4.58 0 1 0 -9.16 0zM861.94 360.36L864.33 359.37L858.54 345.4L856.15 346.39zM852.77 345.89 a4.58 4.58 0 1 0 9.16 0 a4.58 4.58 0 1 0 -9.16 0zM880.75 356.1L883.34 356.1L883.34 334.07L880.75 334.07zM877.47 334.07 a4.58 4.58 0 1 0 9.16 0 a4.58 4.58 0 1 0 -9.16 0zM899.77 359.37L902.16 360.36L909.09 343.62L906.7 342.63zM903.32 343.12 a4.58 4.58 0 1 0 9.16 0 a4.58 4.58 0 1 0 -9.16 0zM916.08 369.66L917.91 371.49L929.72 359.68L927.89 357.85zM924.22 358.77 a4.58 4.58 0 1 0 9.16 0 a4.58 4.58 0 1 0 -9.16 0zM927.21 385.41L928.2 387.8L933.96 385.42L932.97 383.03zM928.88 384.23 a4.58 4.58 0 1 0 9.16 0 a4.58 4.58 0 1 0 -9.16 0zM832.61 405.52 a49.44 49.44 0 1 0 98.88 0 a49.44 49.44 0 1 0 -98.88 0z" fill="rgba(255, 59, 63, 1)"></path><path d="M918.24 439.21 A48.44 48.44 0 0 1 834.81 420.12M834.81 420.12 A98.88 98.88 0 0 0 918.24 439.21" fill="#fb0005" fill-rule="nonzero"></path><path d="M869.38 414.57 a9.89 9.89 0 1 0 19.78 0 a9.89 9.89 0 1 0 -19.78 0zM835.19 419.44 a5.44 5.44 0 1 0 10.88 0 a5.44 5.44 0 1 0 -10.88 0zM892.44 432.14 a6.43 6.43 0 1 0 12.86 0 a6.43 6.43 0 1 0 -12.86 0zM901.86 379.5 a9.89 9.89 0 1 0 19.78 0 a9.89 9.89 0 1 0 -19.78 0zM839.75 391.76 a9.89 9.89 0 1 0 19.78 0 a9.89 9.89 0 1 0 -19.78 0zM880.74 451.41 a3.46 3.46 0 1 0 6.92 0 a3.46 3.46 0 1 0 -6.92 0zM857.57 368.9 a7.42 7.42 0 1 0 14.84 0 a7.42 7.42 0 1 0 -14.84 0zM850.95 442.17 a3.46 3.46 0 1 0 6.92 0 a3.46 3.46 0 1 0 -6.92 0zM907.68 416.35 a3.96 3.96 0 1 0 7.92 0 a3.96 3.96 0 1 0 -7.92 0zM888.84 390.78 a2.97 2.97 0 1 0 5.94 0 a2.97 2.97 0 1 0 -5.94 0z" fill="#fb0005" fill-rule="nonzero"></path><path d="M218.27 447.38L218.27 449L233.24 449L233.24 447.38zM230.37 448.19 a2.87 2.87 0 1 0 5.74 0 a2.87 2.87 0 1 0 -5.74 0zM216.23 459.26L215.61 460.76L223.5 464.02L224.12 462.53zM220.94 463.28 a2.87 2.87 0 1 0 5.74 0 a2.87 2.87 0 1 0 -5.74 0zM209.8 469.46L208.65 470.6L212.71 474.66L213.86 473.52zM210.41 474.09 a2.87 2.87 0 1 0 5.74 0 a2.87 2.87 0 1 0 -5.74 0zM199.95 476.42L198.46 477.04L203.11 488.26L204.6 487.64zM200.98 487.95 a2.87 2.87 0 1 0 5.74 0 a2.87 2.87 0 1 0 -5.74 0zM188.19 479.08L186.57 479.08L186.57 493.86L188.19 493.86zM184.51 493.86 a2.87 2.87 0 1 0 5.74 0 a2.87 2.87 0 1 0 -5.74 0zM176.31 477.04L174.82 476.42L172.58 481.8L174.08 482.42zM170.46 482.11 a2.87 2.87 0 1 0 5.74 0 a2.87 2.87 0 1 0 -5.74 0zM166.11 470.6L164.97 469.46L154.21 480.21L155.36 481.36zM151.92 480.78 a2.87 2.87 0 1 0 5.74 0 a2.87 2.87 0 1 0 -5.74 0zM159.16 460.76L158.54 459.26L148.6 463.38L149.22 464.87zM146.04 464.12 a2.87 2.87 0 1 0 5.74 0 a2.87 2.87 0 1 0 -5.74 0zM156.49 449L156.49 447.38L146.17 447.38L146.17 449zM143.3 448.19 a2.87 2.87 0 1 0 5.74 0 a2.87 2.87 0 1 0 -5.74 0zM158.54 437.11L159.16 435.62L150.81 432.16L150.19 433.66zM147.63 432.91 a2.87 2.87 0 1 0 5.74 0 a2.87 2.87 0 1 0 -5.74 0zM164.97 426.92L166.11 425.77L163.4 423.06L162.25 424.2zM159.96 423.63 a2.87 2.87 0 1 0 5.74 0 a2.87 2.87 0 1 0 -5.74 0zM174.82 419.96L176.31 419.34L173.8 413.29L172.31 413.91zM170.19 413.6 a2.87 2.87 0 1 0 5.74 0 a2.87 2.87 0 1 0 -5.74 0zM186.57 417.3L188.19 417.3L188.19 411.3L186.57 411.3zM184.51 411.3 a2.87 2.87 0 1 0 5.74 0 a2.87 2.87 0 1 0 -5.74 0zM198.46 419.34L199.95 419.96L201.84 415.4L200.35 414.78zM198.22 415.09 a2.87 2.87 0 1 0 5.74 0 a2.87 2.87 0 1 0 -5.74 0zM208.65 425.77L209.8 426.92L215.04 421.67L213.9 420.53zM211.6 421.1 a2.87 2.87 0 1 0 5.74 0 a2.87 2.87 0 1 0 -5.74 0zM215.61 435.62L216.23 437.11L227.03 432.64L226.41 431.15zM223.85 431.89 a2.87 2.87 0 1 0 5.74 0 a2.87 2.87 0 1 0 -5.74 0zM156.48 448.19 a30.9 30.9 0 1 0 61.8 0 a30.9 30.9 0 1 0 -61.8 0z" fill="rgba(255, 59, 63, 1)"></path><path d="M168.33 472.51 A29.9 29.9 0 0 1 175.79 419.55M175.79 419.55 A61.8 61.8 0 0 0 168.33 472.51" fill="#fb0005" fill-rule="nonzero"></path><path d="M164.38 429.45 a4.33 4.33 0 1 0 8.66 0 a4.33 4.33 0 1 0 -8.66 0zM175.98 468.24 a6.18 6.18 0 1 0 12.36 0 a6.18 6.18 0 1 0 -12.36 0zM180.67 421.19 a3.4 3.4 0 1 0 6.8 0 a3.4 3.4 0 1 0 -6.8 0zM191.78 432.93 a6.18 6.18 0 1 0 12.36 0 a6.18 6.18 0 1 0 -12.36 0zM194.44 465.51 a2.16 2.16 0 1 0 4.32 0 a2.16 2.16 0 1 0 -4.32 0zM156.97 452.87 a4.02 4.02 0 1 0 8.04 0 a4.02 4.02 0 1 0 -8.04 0zM173.33 443.03 a6.18 6.18 0 1 0 12.36 0 a6.18 6.18 0 1 0 -12.36 0zM159.13 440.41 a2.16 2.16 0 1 0 4.32 0 a2.16 2.16 0 1 0 -4.32 0zM201.18 456.99 a3.09 3.09 0 1 0 6.18 0 a3.09 3.09 0 1 0 -6.18 0zM209.84 448.5 a1.85 1.85 0 1 0 3.7 0 a1.85 1.85 0 1 0 -3.7 0z" fill="#fb0005" fill-rule="nonzero"></path><path d="M111.76 116.15L111.76 117.77L122.89 117.77L122.89 116.15zM120.02 116.96 a2.87 2.87 0 1 0 5.74 0 a2.87 2.87 0 1 0 -5.74 0zM109.72 128.03L109.1 129.53L119.65 133.9L120.27 132.4zM117.09 133.15 a2.87 2.87 0 1 0 5.74 0 a2.87 2.87 0 1 0 -5.74 0zM103.29 138.23L102.14 139.38L108.09 145.32L109.23 144.18zM105.79 144.75 a2.87 2.87 0 1 0 5.74 0 a2.87 2.87 0 1 0 -5.74 0zM93.44 145.19L91.95 145.81L97.46 159.11L98.95 158.49zM95.33 158.8 a2.87 2.87 0 1 0 5.74 0 a2.87 2.87 0 1 0 -5.74 0zM81.68 147.85L80.06 147.85L80.06 159.45L81.68 159.45zM78 159.45 a2.87 2.87 0 1 0 5.74 0 a2.87 2.87 0 1 0 -5.74 0zM69.8 145.81L68.3 145.19L64.32 154.81L65.81 155.43zM62.2 155.12 a2.87 2.87 0 1 0 5.74 0 a2.87 2.87 0 1 0 -5.74 0zM59.6 139.38L58.46 138.23L54.86 141.83L56 142.97zM52.56 142.4 a2.87 2.87 0 1 0 5.74 0 a2.87 2.87 0 1 0 -5.74 0zM52.64 129.53L52.02 128.03L41.16 132.54L41.78 134.03zM38.6 133.28 a2.87 2.87 0 1 0 5.74 0 a2.87 2.87 0 1 0 -5.74 0zM49.98 117.77L49.98 116.15L38.62 116.15L38.62 117.77zM35.75 116.96 a2.87 2.87 0 1 0 5.74 0 a2.87 2.87 0 1 0 -5.74 0zM52.02 105.89L52.64 104.39L42.55 100.21L41.93 101.7zM39.37 100.96 a2.87 2.87 0 1 0 5.74 0 a2.87 2.87 0 1 0 -5.74 0zM58.46 95.69L59.6 94.55L55.89 90.83L54.75 91.98zM52.45 91.41 a2.87 2.87 0 1 0 5.74 0 a2.87 2.87 0 1 0 -5.74 0zM68.3 88.73L69.8 88.11L65.03 76.59L63.53 77.21zM61.41 76.9 a2.87 2.87 0 1 0 5.74 0 a2.87 2.87 0 1 0 -5.74 0zM80.06 86.07L81.68 86.07L81.68 76.47L80.06 76.47zM78 76.47 a2.87 2.87 0 1 0 5.74 0 a2.87 2.87 0 1 0 -5.74 0zM91.95 88.11L93.44 88.73L95.82 82.99L94.33 82.37zM92.2 82.68 a2.87 2.87 0 1 0 5.74 0 a2.87 2.87 0 1 0 -5.74 0zM102.14 94.55L103.29 95.69L107.98 91L106.84 89.85zM104.54 90.42 a2.87 2.87 0 1 0 5.74 0 a2.87 2.87 0 1 0 -5.74 0zM109.1 104.39L109.72 105.89L122.11 100.76L121.49 99.26zM118.93 100.01 a2.87 2.87 0 1 0 5.74 0 a2.87 2.87 0 1 0 -5.74 0zM49.97 116.96 a30.9 30.9 0 1 0 61.8 0 a30.9 30.9 0 1 0 -61.8 0z" fill="rgba(255, 59, 63, 1)"></path><path d="M57.22 97.08 A29.9 29.9 0 0 1 109.9 106.36M109.9 106.36 A61.8 61.8 0 0 0 57.22 97.08" fill="#fb0005" fill-rule="nonzero"></path><path d="M57.01 117.83 a6.18 6.18 0 1 0 12.36 0 a6.18 6.18 0 1 0 -12.36 0zM79.12 103.07 a6.18 6.18 0 1 0 12.36 0 a6.18 6.18 0 1 0 -12.36 0zM77.73 137.73 a6.18 6.18 0 1 0 12.36 0 a6.18 6.18 0 1 0 -12.36 0zM61.77 135.68 a4.94 4.94 0 1 0 9.88 0 a4.94 4.94 0 1 0 -9.88 0zM77.37 119.76 a4.63 4.63 0 1 0 9.26 0 a4.63 4.63 0 1 0 -9.26 0zM65.65 93.25 a4.94 4.94 0 1 0 9.88 0 a4.94 4.94 0 1 0 -9.88 0zM96.72 112.23 a6.18 6.18 0 1 0 12.36 0 a6.18 6.18 0 1 0 -12.36 0zM100.68 136.68 a1.54 1.54 0 1 0 3.08 0 a1.54 1.54 0 1 0 -3.08 0zM106.05 127.38 a1.85 1.85 0 1 0 3.7 0 a1.85 1.85 0 1 0 -3.7 0zM98.84 98.71 a1.24 1.24 0 1 0 2.48 0 a1.24 1.24 0 1 0 -2.48 0z" fill="#fb0005" fill-rule="nonzero"></path></g><defs><mask id="SvgjsMask1004"><rect width="1000" height="500" fill="#ffffff"></rect></mask></defs></svg>