<svg id="visual" viewBox="0 0 2500 400" width="2500" height="400" xmlns="http://www.w3.org/2000/svg" xmlns:xlink="http://www.w3.org/1999/xlink" version="1.1"><path d="M0 118L357 110L714 130L1071 137L1429 100L1786 149L2143 164L2500 126L2500 0L2143 0L1786 0L1429 0L1071 0L714 0L357 0L0 0Z" fill="#caebf2"></path><path d="M0 84L357 85L714 94L1071 132L1429 123L1786 119L2143 88L2500 101L2500 0L2143 0L1786 0L1429 0L1071 0L714 0L357 0L0 0Z" fill="#c2dadf"></path><path d="M0 77L357 88L714 77L1071 60L1429 77L1786 68L2143 83L2500 85L2500 0L2143 0L1786 0L1429 0L1071 0L714 0L357 0L0 0Z" fill="#bacacd"></path><path d="M0 45L357 67L714 74L1071 67L1429 52L1786 65L2143 73L2500 76L2500 0L2143 0L1786 0L1429 0L1071 0L714 0L357 0L0 0Z" fill="#b2b9bb"></path><path d="M0 47L357 18L714 24L1071 43L1429 23L1786 41L2143 32L2500 46L2500 0L2143 0L1786 0L1429 0L1071 0L714 0L357 0L0 0Z" fill="#a9a9a9"></path></svg>