<svg id="visual" viewBox="0 0 2500 400" width="2500" height="400" xmlns="http://www.w3.org/2000/svg" xmlns:xlink="http://www.w3.org/1999/xlink" version="1.1"><path d="M0 111L59.5 112.3C119 113.7 238 116.3 357 123.8C476 131.3 595 143.7 714 145.5C833 147.3 952 138.7 1071.2 131.2C1190.3 123.7 1309.7 117.3 1428.8 114C1548 110.7 1667 110.3 1786 112.2C1905 114 2024 118 2143 123.5C2262 129 2381 136 2440.5 139.5L2500 143L2500 0L2440.5 0C2381 0 2262 0 2143 0C2024 0 1905 0 1786 0C1667 0 1548 0 1428.8 0C1309.7 0 1190.3 0 1071.2 0C952 0 833 0 714 0C595 0 476 0 357 0C238 0 119 0 59.5 0L0 0Z" fill="#0ea5e9"></path><path d="M0 131L59.5 125.7C119 120.3 238 109.7 357 101.7C476 93.7 595 88.3 714 86.2C833 84 952 85 1071.2 88.8C1190.3 92.7 1309.7 99.3 1428.8 102C1548 104.7 1667 103.3 1786 101.2C1905 99 2024 96 2143 96.7C2262 97.3 2381 101.7 2440.5 103.8L2500 106L2500 0L2440.5 0C2381 0 2262 0 2143 0C2024 0 1905 0 1786 0C1667 0 1548 0 1428.8 0C1309.7 0 1190.3 0 1071.2 0C952 0 833 0 714 0C595 0 476 0 357 0C238 0 119 0 59.5 0L0 0Z" fill="#5d9beb"></path><path d="M0 62L59.5 69C119 76 238 90 357 95.8C476 101.7 595 99.3 714 97.3C833 95.3 952 93.7 1071.2 95.3C1190.3 97 1309.7 102 1428.8 102.3C1548 102.7 1667 98.3 1786 92C1905 85.7 2024 77.3 2143 75.8C2262 74.3 2381 79.7 2440.5 82.3L2500 85L2500 0L2440.5 0C2381 0 2262 0 2143 0C2024 0 1905 0 1786 0C1667 0 1548 0 1428.8 0C1309.7 0 1190.3 0 1071.2 0C952 0 833 0 714 0C595 0 476 0 357 0C238 0 119 0 59.5 0L0 0Z" fill="#8a8ee3"></path><path d="M0 76L59.5 76.2C119 76.3 238 76.7 357 70.7C476 64.7 595 52.3 714 52C833 51.7 952 63.3 1071.2 68.5C1190.3 73.7 1309.7 72.3 1428.8 71.2C1548 70 1667 69 1786 68C1905 67 2024 66 2143 60.8C2262 55.7 2381 46.3 2440.5 41.7L2500 37L2500 0L2440.5 0C2381 0 2262 0 2143 0C2024 0 1905 0 1786 0C1667 0 1548 0 1428.8 0C1309.7 0 1190.3 0 1071.2 0C952 0 833 0 714 0C595 0 476 0 357 0C238 0 119 0 59.5 0L0 0Z" fill="#ad80d2"></path><path d="M0 16L59.5 18.8C119 21.7 238 27.3 357 31C476 34.7 595 36.3 714 36.5C833 36.7 952 35.3 1071.2 31.8C1190.3 28.3 1309.7 22.7 1428.8 21.8C1548 21 1667 25 1786 26.5C1905 28 2024 27 2143 29.8C2262 32.7 2381 39.3 2440.5 42.7L2500 46L2500 0L2440.5 0C2381 0 2262 0 2143 0C2024 0 1905 0 1786 0C1667 0 1548 0 1428.8 0C1309.7 0 1190.3 0 1071.2 0C952 0 833 0 714 0C595 0 476 0 357 0C238 0 119 0 59.5 0L0 0Z" fill="#c772ba"></path></svg>