<svg xmlns="http://www.w3.org/2000/svg" version="1.1" xmlns:xlink="http://www.w3.org/1999/xlink" xmlns:svgjs="http://svgjs.dev/svgjs" width="1440" height="560" preserveAspectRatio="none" viewBox="0 0 1440 560"><g mask="url(&quot;#SvgjsMask1006&quot;)" fill="none"><rect width="1440" height="560" x="0" y="0" fill="rgba(104, 133, 159, 1)"></rect><path d="M0,481.105C91.055,476.767,177.053,444.109,253.581,394.579C329.929,345.166,396.179,280.881,435.825,199.035C476.028,116.037,490.728,22.614,478.002,-68.726C465.241,-160.314,434.087,-255.044,364.134,-315.524C297.081,-373.497,201.444,-380.917,112.873,-384.411C39.145,-387.319,-26.109,-350.37,-97.999,-333.755C-175.584,-315.823,-264.453,-332.842,-326.453,-282.873C-391.482,-230.462,-422.629,-145.143,-434.581,-62.483C-446.539,20.216,-420.389,100.571,-393.329,179.627C-363.59,266.508,-342.485,363.643,-269.601,419.507C-194.925,476.744,-93.981,485.583,0,481.105" fill="#526b81"></path><path d="M1440 996.148C1518.496 979.5160000000001 1572.368 913.852 1635.965 864.927 1693.692 820.517 1760.874 786.405 1795.753 722.467 1831.949 656.114 1840.554 578.694 1833.1390000000001 503.475 1825.49 425.885 1808.625 343.414 1752.999 288.784 1698.597 235.356 1612.596 242.337 1540.876 216.44600000000003 1463.152 188.38799999999998 1392.063 103.69 1313.811 130.23899999999998 1234.87 157.022 1234.943 272.143 1183.464 337.71000000000004 1135.56 398.724 1055.045 429.272 1023.418 500.105 986.557 582.659 963.6220000000001 678.626 993.075 764.104 1023.344 851.9490000000001 1099.79 918.25 1182.252 961.0640000000001 1260.797 1001.845 1353.421 1014.4929999999999 1440 996.148" fill="#889fb3"></path></g><defs><mask id="SvgjsMask1006"><rect width="1440" height="560" fill="#ffffff"></rect></mask></defs></svg>