<svg xmlns="http://www.w3.org/2000/svg" version="1.1" xmlns:xlink="http://www.w3.org/1999/xlink" xmlns:svgjs="http://svgjs.dev/svgjs" width="2500" height="2000" preserveAspectRatio="none" viewBox="0 0 2500 2000"><g mask="url(&quot;#SvgjsMask1046&quot;)" fill="none"><rect width="2500" height="2000" x="0" y="0" fill="url(&quot;#SvgjsLinearGradient1047&quot;)"></rect><path d="M1181.91 1596.29L1181.91 1602.76L1234.42 1602.76L1234.42 1596.29zM1222.96 1599.52 a11.46 11.46 0 1 0 22.92 0 a11.46 11.46 0 1 0 -22.92 0zM1173.74 1643.82L1171.26 1649.8L1227.66 1673.16L1230.13 1667.18zM1217.43 1670.17 a11.46 11.46 0 1 0 22.92 0 a11.46 11.46 0 1 0 -22.92 0zM1148 1684.61L1143.43 1689.18L1179.28 1725.03L1183.85 1720.46zM1170.11 1722.74 a11.46 11.46 0 1 0 22.92 0 a11.46 11.46 0 1 0 -22.92 0zM1108.62 1712.44L1102.64 1714.92L1109.45 1731.35L1115.43 1728.87zM1100.98 1730.11 a11.46 11.46 0 1 0 22.92 0 a11.46 11.46 0 1 0 -22.92 0zM1061.58 1723.08L1055.11 1723.08L1055.11 1773.51L1061.58 1773.51zM1046.89 1773.51 a11.46 11.46 0 1 0 22.92 0 a11.46 11.46 0 1 0 -22.92 0zM1014.05 1714.92L1008.07 1712.44L993.61 1747.37L999.58 1749.85zM985.13 1748.61 a11.46 11.46 0 1 0 22.92 0 a11.46 11.46 0 1 0 -22.92 0zM973.27 1689.18L968.69 1684.61L938.76 1714.54L943.33 1719.11zM929.59 1716.83 a11.46 11.46 0 1 0 22.92 0 a11.46 11.46 0 1 0 -22.92 0zM945.43 1649.8L942.96 1643.82L909.26 1657.78L911.74 1663.75zM899.04 1660.76 a11.46 11.46 0 1 0 22.92 0 a11.46 11.46 0 1 0 -22.92 0zM934.79 1602.76L934.79 1596.29L878.88 1596.29L878.88 1602.76zM867.42 1599.52 a11.46 11.46 0 1 0 22.92 0 a11.46 11.46 0 1 0 -22.92 0zM942.96 1555.23L945.43 1549.25L903.45 1531.86L900.98 1537.84zM890.75 1534.85 a11.46 11.46 0 1 0 22.92 0 a11.46 11.46 0 1 0 -22.92 0zM968.69 1514.44L973.27 1509.87L957.2 1493.8L952.63 1498.38zM943.45 1496.09 a11.46 11.46 0 1 0 22.92 0 a11.46 11.46 0 1 0 -22.92 0zM1008.07 1486.61L1014.05 1484.13L997.17 1443.37L991.19 1445.85zM982.72 1444.61 a11.46 11.46 0 1 0 22.92 0 a11.46 11.46 0 1 0 -22.92 0zM1055.11 1475.97L1061.58 1475.97L1061.58 1447.43L1055.11 1447.43zM1046.89 1447.43 a11.46 11.46 0 1 0 22.92 0 a11.46 11.46 0 1 0 -22.92 0zM1102.64 1484.13L1108.62 1486.61L1130.38 1434.08L1124.4 1431.6zM1115.93 1432.84 a11.46 11.46 0 1 0 22.92 0 a11.46 11.46 0 1 0 -22.92 0zM1143.43 1509.87L1148 1514.44L1181.03 1481.42L1176.45 1476.85zM1167.28 1479.13 a11.46 11.46 0 1 0 22.92 0 a11.46 11.46 0 1 0 -22.92 0zM1171.26 1549.25L1173.74 1555.23L1189.17 1548.84L1186.69 1542.86zM1176.47 1545.85 a11.46 11.46 0 1 0 22.92 0 a11.46 11.46 0 1 0 -22.92 0zM934.75 1599.52 a123.6 123.6 0 1 0 247.2 0 a123.6 123.6 0 1 0 -247.2 0z" fill="rgba(199, 114, 186, 1)"></path><path d="M1026.75 1480.03 A122.6 122.6 0 0 1 1177.7 1631.66M1177.7 1631.66 A247.2 247.2 0 0 0 1026.75 1480.03" fill="#b347a3" fill-rule="nonzero"></path><path d="M983.9 1672.57 a24.72 24.72 0 1 0 49.44 0 a24.72 24.72 0 1 0 -49.44 0zM1095.09 1610.16 a24.72 24.72 0 1 0 49.44 0 a24.72 24.72 0 1 0 -49.44 0zM936.47 1617.57 a7.42 7.42 0 1 0 14.84 0 a7.42 7.42 0 1 0 -14.84 0zM1084.91 1687.48 a22.25 22.25 0 1 0 44.5 0 a22.25 22.25 0 1 0 -44.5 0zM952.84 1541.95 a17.3 17.3 0 1 0 34.6 0 a17.3 17.3 0 1 0 -34.6 0zM1051.47 1490.89 a13.6 13.6 0 1 0 27.2 0 a13.6 13.6 0 1 0 -27.2 0zM1066.28 1573.27 a8.65 8.65 0 1 0 17.3 0 a8.65 8.65 0 1 0 -17.3 0zM1052.92 1649.05 a4.94 4.94 0 1 0 9.88 0 a4.94 4.94 0 1 0 -9.88 0zM1030.76 1585.85 a6.18 6.18 0 1 0 12.36 0 a6.18 6.18 0 1 0 -12.36 0zM1091.51 1534.14 a18.54 18.54 0 1 0 37.08 0 a18.54 18.54 0 1 0 -37.08 0z" fill="#b347a3" fill-rule="nonzero"></path><path d="M2064.5 551.65L2064.5 558.12L2105.31 558.12L2105.31 551.65zM2093.85 554.88 a11.46 11.46 0 1 0 22.92 0 a11.46 11.46 0 1 0 -22.92 0zM2056.34 599.18L2053.86 605.15L2072.85 613.02L2075.32 607.04zM2062.62 610.03 a11.46 11.46 0 1 0 22.92 0 a11.46 11.46 0 1 0 -22.92 0zM2030.6 639.96L2026.03 644.54L2056.11 674.62L2060.69 670.05zM2046.94 672.34 a11.46 11.46 0 1 0 22.92 0 a11.46 11.46 0 1 0 -22.92 0zM1991.22 667.8L1985.24 670.27L2007.44 723.87L2013.42 721.39zM1998.97 722.63 a11.46 11.46 0 1 0 22.92 0 a11.46 11.46 0 1 0 -22.92 0zM1944.18 678.44L1937.71 678.44L1937.71 725.12L1944.18 725.12zM1929.49 725.12 a11.46 11.46 0 1 0 22.92 0 a11.46 11.46 0 1 0 -22.92 0zM1896.65 670.27L1890.67 667.8L1883.67 684.7L1889.65 687.18zM1875.2 685.94 a11.46 11.46 0 1 0 22.92 0 a11.46 11.46 0 1 0 -22.92 0zM1855.87 644.54L1851.29 639.96L1812.94 678.32L1817.51 682.89zM1803.76 680.6 a11.46 11.46 0 1 0 22.92 0 a11.46 11.46 0 1 0 -22.92 0zM1828.03 605.15L1825.56 599.18L1771.12 621.72L1773.6 627.7zM1760.9 624.71 a11.46 11.46 0 1 0 22.92 0 a11.46 11.46 0 1 0 -22.92 0zM1817.39 558.12L1817.39 551.65L1799.49 551.65L1799.49 558.12zM1788.03 554.88 a11.46 11.46 0 1 0 22.92 0 a11.46 11.46 0 1 0 -22.92 0zM1825.56 510.59L1828.03 504.61L1774.53 482.45L1772.05 488.43zM1761.83 485.44 a11.46 11.46 0 1 0 22.92 0 a11.46 11.46 0 1 0 -22.92 0zM1851.29 469.8L1855.87 465.22L1831.55 440.91L1826.97 445.48zM1817.8 443.2 a11.46 11.46 0 1 0 22.92 0 a11.46 11.46 0 1 0 -22.92 0zM1890.67 441.97L1896.65 439.49L1890.2 423.92L1884.23 426.4zM1875.75 425.16 a11.46 11.46 0 1 0 22.92 0 a11.46 11.46 0 1 0 -22.92 0zM1937.71 431.32L1944.18 431.32L1944.18 402.86L1937.71 402.86zM1929.49 402.86 a11.46 11.46 0 1 0 22.92 0 a11.46 11.46 0 1 0 -22.92 0zM1985.24 439.49L1991.22 441.97L2002.95 413.64L1996.97 411.16zM1988.5 412.4 a11.46 11.46 0 1 0 22.92 0 a11.46 11.46 0 1 0 -22.92 0zM2026.03 465.22L2030.6 469.8L2071.52 428.88L2066.95 424.3zM2057.77 426.59 a11.46 11.46 0 1 0 22.92 0 a11.46 11.46 0 1 0 -22.92 0zM2053.86 504.61L2056.34 510.59L2104.44 490.66L2101.97 484.68zM2091.74 487.67 a11.46 11.46 0 1 0 22.92 0 a11.46 11.46 0 1 0 -22.92 0zM1817.35 554.88 a123.6 123.6 0 1 0 247.2 0 a123.6 123.6 0 1 0 -247.2 0z" fill="rgba(199, 114, 186, 1)"></path><path d="M2060.66 585.62 A122.6 122.6 0 0 1 1854.65 643.37M1854.65 643.37 A247.2 247.2 0 0 0 2060.66 585.62" fill="#b347a3" fill-rule="nonzero"></path><path d="M1872.68 585.1 a24.72 24.72 0 1 0 49.44 0 a24.72 24.72 0 1 0 -49.44 0zM1867.84 480.31 a24.72 24.72 0 1 0 49.44 0 a24.72 24.72 0 1 0 -49.44 0zM1999.8 628.81 a17.3 17.3 0 1 0 34.6 0 a17.3 17.3 0 1 0 -34.6 0zM1944.98 493.95 a24.72 24.72 0 1 0 49.44 0 a24.72 24.72 0 1 0 -49.44 0zM1937.88 446.31 a4.94 4.94 0 1 0 9.88 0 a4.94 4.94 0 1 0 -9.88 0zM1991.62 562.74 a23.48 23.48 0 1 0 46.96 0 a23.48 23.48 0 1 0 -46.96 0zM1902.07 647.54 a14.83 14.83 0 1 0 29.66 0 a14.83 14.83 0 1 0 -29.66 0zM1851.97 636.91 a6.18 6.18 0 1 0 12.36 0 a6.18 6.18 0 1 0 -12.36 0zM1957.13 669.69 a6.18 6.18 0 1 0 12.36 0 a6.18 6.18 0 1 0 -12.36 0zM1957.28 572.81 a4.94 4.94 0 1 0 9.88 0 a4.94 4.94 0 1 0 -9.88 0z" fill="#b347a3" fill-rule="nonzero"></path><path d="M728.03 791.18L728.03 797.65L751.61 797.65L751.61 791.18zM740.15 794.41 a11.46 11.46 0 1 0 22.92 0 a11.46 11.46 0 1 0 -22.92 0zM719.86 838.71L717.39 844.68L747.08 856.98L749.56 851.01zM736.86 853.99 a11.46 11.46 0 1 0 22.92 0 a11.46 11.46 0 1 0 -22.92 0zM694.13 879.49L689.55 884.07L705.59 900.11L710.17 895.53zM696.42 897.82 a11.46 11.46 0 1 0 22.92 0 a11.46 11.46 0 1 0 -22.92 0zM654.75 907.33L648.77 909.8L666.16 951.78L672.13 949.31zM657.69 950.55 a11.46 11.46 0 1 0 22.92 0 a11.46 11.46 0 1 0 -22.92 0zM607.71 917.97L601.24 917.97L601.24 960.25L607.71 960.25zM593.01 960.25 a11.46 11.46 0 1 0 22.92 0 a11.46 11.46 0 1 0 -22.92 0zM560.18 909.8L554.2 907.33L540.99 939.22L546.97 941.69zM532.52 940.46 a11.46 11.46 0 1 0 22.92 0 a11.46 11.46 0 1 0 -22.92 0zM519.39 884.07L514.82 879.49L474.3 920.01L478.88 924.59zM465.13 922.3 a11.46 11.46 0 1 0 22.92 0 a11.46 11.46 0 1 0 -22.92 0zM491.56 844.68L489.08 838.71L452.75 853.76L455.22 859.74zM442.52 856.75 a11.46 11.46 0 1 0 22.92 0 a11.46 11.46 0 1 0 -22.92 0zM480.92 797.65L480.92 791.18L436.07 791.18L436.07 797.65zM424.61 794.41 a11.46 11.46 0 1 0 22.92 0 a11.46 11.46 0 1 0 -22.92 0zM489.08 750.12L491.56 744.14L469.69 735.08L467.21 741.06zM456.99 738.07 a11.46 11.46 0 1 0 22.92 0 a11.46 11.46 0 1 0 -22.92 0zM514.82 709.33L519.39 704.76L495.28 680.64L490.7 685.22zM481.53 682.93 a11.46 11.46 0 1 0 22.92 0 a11.46 11.46 0 1 0 -22.92 0zM554.2 681.5L560.18 679.02L540.42 631.32L534.44 633.8zM525.97 632.56 a11.46 11.46 0 1 0 22.92 0 a11.46 11.46 0 1 0 -22.92 0zM601.24 670.85L607.71 670.85L607.71 625.93L601.24 625.93zM593.01 625.93 a11.46 11.46 0 1 0 22.92 0 a11.46 11.46 0 1 0 -22.92 0zM648.77 679.02L654.75 681.5L662.9 661.82L656.92 659.34zM648.45 660.58 a11.46 11.46 0 1 0 22.92 0 a11.46 11.46 0 1 0 -22.92 0zM689.55 704.76L694.13 709.33L711.29 692.17L706.72 687.59zM697.54 689.88 a11.46 11.46 0 1 0 22.92 0 a11.46 11.46 0 1 0 -22.92 0zM717.39 744.14L719.86 750.12L766.63 730.75L764.15 724.77zM753.93 727.76 a11.46 11.46 0 1 0 22.92 0 a11.46 11.46 0 1 0 -22.92 0zM480.87 794.41 a123.6 123.6 0 1 0 247.2 0 a123.6 123.6 0 1 0 -247.2 0z" fill="rgba(199, 114, 186, 1)"></path><path d="M669.44 689.26 A122.6 122.6 0 0 1 663.28 903.13M663.28 903.13 A247.2 247.2 0 0 0 669.44 689.26" fill="#b347a3" fill-rule="nonzero"></path><path d="M489.87 753.34 a14.83 14.83 0 1 0 29.66 0 a14.83 14.83 0 1 0 -29.66 0zM577.07 809.39 a24.72 24.72 0 1 0 49.44 0 a24.72 24.72 0 1 0 -49.44 0zM714.77 783.23 a6.18 6.18 0 1 0 12.36 0 a6.18 6.18 0 1 0 -12.36 0zM664.76 784.94 a12.36 12.36 0 1 0 24.72 0 a12.36 12.36 0 1 0 -24.72 0zM636.76 859.14 a24.72 24.72 0 1 0 49.44 0 a24.72 24.72 0 1 0 -49.44 0zM576.01 755.42 a7.42 7.42 0 1 0 14.84 0 a7.42 7.42 0 1 0 -14.84 0zM649.22 724.19 a23.48 23.48 0 1 0 46.96 0 a23.48 23.48 0 1 0 -46.96 0zM502.68 808.86 a17.3 17.3 0 1 0 34.6 0 a17.3 17.3 0 1 0 -34.6 0zM553.19 876.41 a22.25 22.25 0 1 0 44.5 0 a22.25 22.25 0 1 0 -44.5 0zM543.98 709.24 a18.54 18.54 0 1 0 37.08 0 a18.54 18.54 0 1 0 -37.08 0z" fill="#b347a3" fill-rule="nonzero"></path><path d="M353.79 1548.87L353.79 1555.34L388.41 1555.34L388.41 1548.87zM376.95 1552.11 a11.46 11.46 0 1 0 22.92 0 a11.46 11.46 0 1 0 -22.92 0zM345.63 1596.4L343.15 1602.38L386.02 1620.14L388.49 1614.16zM375.8 1617.15 a11.46 11.46 0 1 0 22.92 0 a11.46 11.46 0 1 0 -22.92 0zM319.89 1637.19L315.32 1641.77L352.28 1678.73L356.86 1674.16zM343.11 1676.45 a11.46 11.46 0 1 0 22.92 0 a11.46 11.46 0 1 0 -22.92 0zM280.51 1665.02L274.53 1667.5L293.75 1713.91L299.73 1711.43zM285.28 1712.67 a11.46 11.46 0 1 0 22.92 0 a11.46 11.46 0 1 0 -22.92 0zM233.47 1675.67L227 1675.67L227 1717.37L233.47 1717.37zM218.78 1717.37 a11.46 11.46 0 1 0 22.92 0 a11.46 11.46 0 1 0 -22.92 0zM185.94 1667.5L179.96 1665.02L163.78 1704.1L169.75 1706.58zM155.3 1705.34 a11.46 11.46 0 1 0 22.92 0 a11.46 11.46 0 1 0 -22.92 0zM145.15 1641.77L140.58 1637.19L111.56 1666.21L116.14 1670.79zM102.39 1668.5 a11.46 11.46 0 1 0 22.92 0 a11.46 11.46 0 1 0 -22.92 0zM117.32 1602.38L114.85 1596.4L61.2 1618.62L63.68 1624.6zM50.98 1621.61 a11.46 11.46 0 1 0 22.92 0 a11.46 11.46 0 1 0 -22.92 0zM106.68 1555.34L106.68 1548.87L46.18 1548.87L46.18 1555.34zM34.72 1552.11 a11.46 11.46 0 1 0 22.92 0 a11.46 11.46 0 1 0 -22.92 0zM114.85 1507.82L117.32 1501.84L96.85 1493.36L94.37 1499.33zM84.15 1496.35 a11.46 11.46 0 1 0 22.92 0 a11.46 11.46 0 1 0 -22.92 0zM140.58 1467.03L145.15 1462.45L112.14 1429.44L107.56 1434.01zM98.39 1431.73 a11.46 11.46 0 1 0 22.92 0 a11.46 11.46 0 1 0 -22.92 0zM179.96 1439.2L185.94 1436.72L168.23 1393.95L162.25 1396.43zM153.78 1395.19 a11.46 11.46 0 1 0 22.92 0 a11.46 11.46 0 1 0 -22.92 0zM227 1428.55L233.47 1428.55L233.47 1371.73L227 1371.73zM218.78 1371.73 a11.46 11.46 0 1 0 22.92 0 a11.46 11.46 0 1 0 -22.92 0zM274.53 1436.72L280.51 1439.2L301.5 1388.52L295.52 1386.04zM287.05 1387.28 a11.46 11.46 0 1 0 22.92 0 a11.46 11.46 0 1 0 -22.92 0zM315.32 1462.45L319.89 1467.03L337.34 1449.58L332.77 1445zM323.6 1447.29 a11.46 11.46 0 1 0 22.92 0 a11.46 11.46 0 1 0 -22.92 0zM343.15 1501.84L345.63 1507.82L375.11 1495.6L372.63 1489.63zM362.41 1492.61 a11.46 11.46 0 1 0 22.92 0 a11.46 11.46 0 1 0 -22.92 0zM106.64 1552.11 a123.6 123.6 0 1 0 247.2 0 a123.6 123.6 0 1 0 -247.2 0z" fill="rgba(199, 114, 186, 1)"></path><path d="M353.77 1555.99 A122.6 122.6 0 0 1 165.32 1657.29M165.32 1657.29 A247.2 247.2 0 0 0 353.77 1555.99" fill="#b347a3" fill-rule="nonzero"></path><path d="M233.69 1494.59 a24.72 24.72 0 1 0 49.44 0 a24.72 24.72 0 1 0 -49.44 0zM155.06 1504.1 a24.72 24.72 0 1 0 49.44 0 a24.72 24.72 0 1 0 -49.44 0zM231.71 1579.2 a24.72 24.72 0 1 0 49.44 0 a24.72 24.72 0 1 0 -49.44 0zM154.75 1583.75 a24.72 24.72 0 1 0 49.44 0 a24.72 24.72 0 1 0 -49.44 0zM318.12 1555.36 a17.3 17.3 0 1 0 34.6 0 a17.3 17.3 0 1 0 -34.6 0zM123.12 1527.97 a6.18 6.18 0 1 0 12.36 0 a6.18 6.18 0 1 0 -12.36 0zM249.77 1664.52 a7.42 7.42 0 1 0 14.84 0 a7.42 7.42 0 1 0 -14.84 0zM216.91 1641.98 a7.42 7.42 0 1 0 14.84 0 a7.42 7.42 0 1 0 -14.84 0zM306.32 1508.51 a6.18 6.18 0 1 0 12.36 0 a6.18 6.18 0 1 0 -12.36 0zM120.43 1606.18 a4.94 4.94 0 1 0 9.88 0 a4.94 4.94 0 1 0 -9.88 0z" fill="#b347a3" fill-rule="nonzero"></path><path d="M1503.69 255.83L1503.69 262.3L1533.53 262.3L1533.53 255.83zM1522.07 259.07 a11.46 11.46 0 1 0 22.92 0 a11.46 11.46 0 1 0 -22.92 0zM1495.52 303.36L1493.04 309.34L1515.81 318.77L1518.28 312.79zM1505.59 315.78 a11.46 11.46 0 1 0 22.92 0 a11.46 11.46 0 1 0 -22.92 0zM1469.78 344.15L1465.21 348.73L1483.47 366.99L1488.05 362.41zM1474.3 364.7 a11.46 11.46 0 1 0 22.92 0 a11.46 11.46 0 1 0 -22.92 0zM1430.4 371.98L1424.42 374.46L1435.96 402.31L1441.94 399.83zM1427.49 401.07 a11.46 11.46 0 1 0 22.92 0 a11.46 11.46 0 1 0 -22.92 0zM1383.36 382.63L1376.89 382.63L1376.89 424.87L1383.36 424.87zM1368.67 424.87 a11.46 11.46 0 1 0 22.92 0 a11.46 11.46 0 1 0 -22.92 0zM1335.83 374.46L1329.86 371.98L1308.33 423.95L1314.31 426.43zM1299.86 425.19 a11.46 11.46 0 1 0 22.92 0 a11.46 11.46 0 1 0 -22.92 0zM1295.05 348.73L1290.47 344.15L1263.1 371.52L1267.68 376.1zM1253.93 373.81 a11.46 11.46 0 1 0 22.92 0 a11.46 11.46 0 1 0 -22.92 0zM1267.21 309.34L1264.74 303.36L1217.47 322.94L1219.95 328.92zM1207.25 325.93 a11.46 11.46 0 1 0 22.92 0 a11.46 11.46 0 1 0 -22.92 0zM1256.57 262.3L1256.57 255.83L1226.36 255.83L1226.36 262.3zM1214.9 259.07 a11.46 11.46 0 1 0 22.92 0 a11.46 11.46 0 1 0 -22.92 0zM1264.74 214.77L1267.21 208.8L1214.79 187.08L1212.32 193.06zM1202.1 190.07 a11.46 11.46 0 1 0 22.92 0 a11.46 11.46 0 1 0 -22.92 0zM1290.47 173.99L1295.05 169.41L1280.06 154.42L1275.48 159zM1266.31 156.71 a11.46 11.46 0 1 0 22.92 0 a11.46 11.46 0 1 0 -22.92 0zM1329.86 146.15L1335.83 143.68L1329.06 127.33L1323.08 129.8zM1314.61 128.56 a11.46 11.46 0 1 0 22.92 0 a11.46 11.46 0 1 0 -22.92 0zM1376.89 135.51L1383.36 135.51L1383.36 77.67L1376.89 77.67zM1368.67 77.67 a11.46 11.46 0 1 0 22.92 0 a11.46 11.46 0 1 0 -22.92 0zM1424.42 143.68L1430.4 146.15L1439.77 123.54L1433.79 121.06zM1425.32 122.3 a11.46 11.46 0 1 0 22.92 0 a11.46 11.46 0 1 0 -22.92 0zM1465.21 169.41L1469.78 173.99L1502.64 141.13L1498.07 136.55zM1488.9 138.84 a11.46 11.46 0 1 0 22.92 0 a11.46 11.46 0 1 0 -22.92 0zM1493.04 208.8L1495.52 214.77L1530.03 200.48L1527.55 194.5zM1517.33 197.49 a11.46 11.46 0 1 0 22.92 0 a11.46 11.46 0 1 0 -22.92 0zM1256.53 259.07 a123.6 123.6 0 1 0 247.2 0 a123.6 123.6 0 1 0 -247.2 0z" fill="rgba(199, 114, 186, 1)"></path><path d="M1490.27 315.16 A122.6 122.6 0 0 1 1276.62 326.62M1276.62 326.62 A247.2 247.2 0 0 0 1490.27 315.16" fill="#b347a3" fill-rule="nonzero"></path><path d="M1345.56 165 a24.72 24.72 0 1 0 49.44 0 a24.72 24.72 0 1 0 -49.44 0zM1427.83 205.74 a24.72 24.72 0 1 0 49.44 0 a24.72 24.72 0 1 0 -49.44 0zM1476.84 255.52 a11.12 11.12 0 1 0 22.24 0 a11.12 11.12 0 1 0 -22.24 0zM1353.39 234.23 a19.78 19.78 0 1 0 39.56 0 a19.78 19.78 0 1 0 -39.56 0zM1328.86 347.16 a24.72 24.72 0 1 0 49.44 0 a24.72 24.72 0 1 0 -49.44 0zM1309.52 269.01 a14.83 14.83 0 1 0 29.66 0 a14.83 14.83 0 1 0 -29.66 0zM1403.78 349.74 a17.3 17.3 0 1 0 34.6 0 a17.3 17.3 0 1 0 -34.6 0zM1376.14 294.1 a13.6 13.6 0 1 0 27.2 0 a13.6 13.6 0 1 0 -27.2 0zM1452.44 316.17 a16.07 16.07 0 1 0 32.14 0 a16.07 16.07 0 1 0 -32.14 0zM1317.48 223.07 a6.18 6.18 0 1 0 12.36 0 a6.18 6.18 0 1 0 -12.36 0z" fill="#b347a3" fill-rule="nonzero"></path><path d="M1633.12 1219.14L1633.12 1225.61L1651.37 1225.61L1651.37 1219.14zM1639.91 1222.38 a11.46 11.46 0 1 0 22.92 0 a11.46 11.46 0 1 0 -22.92 0zM1624.95 1266.67L1622.48 1272.65L1637.87 1279.03L1640.35 1273.05zM1627.65 1276.04 a11.46 11.46 0 1 0 22.92 0 a11.46 11.46 0 1 0 -22.92 0zM1599.22 1307.46L1594.64 1312.03L1630.45 1347.84L1635.03 1343.27zM1621.28 1345.55 a11.46 11.46 0 1 0 22.92 0 a11.46 11.46 0 1 0 -22.92 0zM1559.84 1335.29L1553.86 1337.77L1561.21 1355.53L1567.19 1353.05zM1552.74 1354.29 a11.46 11.46 0 1 0 22.92 0 a11.46 11.46 0 1 0 -22.92 0zM1512.8 1345.94L1506.33 1345.94L1506.33 1395.36L1512.8 1395.36zM1498.1 1395.36 a11.46 11.46 0 1 0 22.92 0 a11.46 11.46 0 1 0 -22.92 0zM1465.27 1337.77L1459.29 1335.29L1450.74 1355.92L1456.72 1358.4zM1442.27 1357.16 a11.46 11.46 0 1 0 22.92 0 a11.46 11.46 0 1 0 -22.92 0zM1424.48 1312.03L1419.91 1307.46L1398.27 1329.1L1402.84 1333.67zM1389.1 1331.38 a11.46 11.46 0 1 0 22.92 0 a11.46 11.46 0 1 0 -22.92 0zM1396.65 1272.65L1394.17 1266.67L1351.6 1284.31L1354.08 1290.28zM1341.38 1287.3 a11.46 11.46 0 1 0 22.92 0 a11.46 11.46 0 1 0 -22.92 0zM1386.01 1225.61L1386.01 1219.14L1360.21 1219.14L1360.21 1225.61zM1348.75 1222.38 a11.46 11.46 0 1 0 22.92 0 a11.46 11.46 0 1 0 -22.92 0zM1394.17 1178.08L1396.65 1172.11L1351.88 1153.56L1349.4 1159.54zM1339.18 1156.55 a11.46 11.46 0 1 0 22.92 0 a11.46 11.46 0 1 0 -22.92 0zM1419.91 1137.3L1424.48 1132.72L1399.07 1107.31L1394.49 1111.88zM1385.32 1109.6 a11.46 11.46 0 1 0 22.92 0 a11.46 11.46 0 1 0 -22.92 0zM1459.29 1109.46L1465.27 1106.99L1451.6 1073.99L1445.62 1076.46zM1437.15 1075.22 a11.46 11.46 0 1 0 22.92 0 a11.46 11.46 0 1 0 -22.92 0zM1506.33 1098.82L1512.8 1098.82L1512.8 1041.64L1506.33 1041.64zM1498.1 1041.64 a11.46 11.46 0 1 0 22.92 0 a11.46 11.46 0 1 0 -22.92 0zM1553.86 1106.99L1559.84 1109.46L1574.56 1073.92L1568.58 1071.45zM1560.11 1072.68 a11.46 11.46 0 1 0 22.92 0 a11.46 11.46 0 1 0 -22.92 0zM1594.64 1132.72L1599.22 1137.3L1610.99 1125.53L1606.41 1120.96zM1597.24 1123.24 a11.46 11.46 0 1 0 22.92 0 a11.46 11.46 0 1 0 -22.92 0zM1622.48 1172.11L1624.95 1178.08L1667.32 1160.53L1664.85 1154.56zM1654.62 1157.54 a11.46 11.46 0 1 0 22.92 0 a11.46 11.46 0 1 0 -22.92 0zM1385.96 1222.38 a123.6 123.6 0 1 0 247.2 0 a123.6 123.6 0 1 0 -247.2 0z" fill="rgba(199, 114, 186, 1)"></path><path d="M1572.8 1116.18 A122.6 122.6 0 0 1 1570.14 1330.11M1570.14 1330.11 A247.2 247.2 0 0 0 1572.8 1116.18" fill="#b347a3" fill-rule="nonzero"></path><path d="M1386.93 1212.22 a18.54 18.54 0 1 0 37.08 0 a18.54 18.54 0 1 0 -37.08 0zM1550.98 1289.8 a24.72 24.72 0 1 0 49.44 0 a24.72 24.72 0 1 0 -49.44 0zM1512.64 1227.38 a23.48 23.48 0 1 0 46.96 0 a23.48 23.48 0 1 0 -46.96 0zM1460.2 1193 a18.54 18.54 0 1 0 37.08 0 a18.54 18.54 0 1 0 -37.08 0zM1574.8 1190.25 a22.25 22.25 0 1 0 44.5 0 a22.25 22.25 0 1 0 -44.5 0zM1495.06 1333.5 a12.36 12.36 0 1 0 24.72 0 a12.36 12.36 0 1 0 -24.72 0zM1478.19 1245.21 a6.18 6.18 0 1 0 12.36 0 a6.18 6.18 0 1 0 -12.36 0zM1407.42 1283.94 a21.01 21.01 0 1 0 42.02 0 a21.01 21.01 0 1 0 -42.02 0zM1474.46 1128.51 a23.48 23.48 0 1 0 46.96 0 a23.48 23.48 0 1 0 -46.96 0zM1426.43 1170.67 a6.18 6.18 0 1 0 12.36 0 a6.18 6.18 0 1 0 -12.36 0z" fill="#b347a3" fill-rule="nonzero"></path><path d="M371.32 103.31L371.32 106.55L390.61 106.55L390.61 103.31zM384.88 104.93 a5.73 5.73 0 1 0 11.46 0 a5.73 5.73 0 1 0 -11.46 0zM367.24 127.08L366 130.06L375.17 133.86L376.41 130.88zM370.06 132.37 a5.73 5.73 0 1 0 11.46 0 a5.73 5.73 0 1 0 -11.46 0zM354.37 147.47L352.08 149.76L371.97 169.65L374.26 167.36zM367.39 168.5 a5.73 5.73 0 1 0 11.46 0 a5.73 5.73 0 1 0 -11.46 0zM334.68 161.39L331.69 162.62L336.86 175.11L339.85 173.88zM332.63 174.5 a5.73 5.73 0 1 0 11.46 0 a5.73 5.73 0 1 0 -11.46 0zM311.16 166.71L307.92 166.71L307.92 180.77L311.16 180.77zM303.81 180.77 a5.73 5.73 0 1 0 11.46 0 a5.73 5.73 0 1 0 -11.46 0zM287.39 162.62L284.41 161.39L274.73 184.74L277.72 185.98zM270.5 185.36 a5.73 5.73 0 1 0 11.46 0 a5.73 5.73 0 1 0 -11.46 0zM267 149.76L264.71 147.47L248.09 164.09L250.38 166.38zM243.5 165.24 a5.73 5.73 0 1 0 11.46 0 a5.73 5.73 0 1 0 -11.46 0zM253.08 130.06L251.85 127.08L236.7 133.35L237.94 136.34zM231.59 134.84 a5.73 5.73 0 1 0 11.46 0 a5.73 5.73 0 1 0 -11.46 0zM247.76 106.55L247.76 103.31L237.11 103.31L237.11 106.55zM231.38 104.93 a5.73 5.73 0 1 0 11.46 0 a5.73 5.73 0 1 0 -11.46 0zM251.85 82.78L253.08 79.79L244.37 76.18L243.13 79.17zM238.02 77.68 a5.73 5.73 0 1 0 11.46 0 a5.73 5.73 0 1 0 -11.46 0zM264.71 62.39L267 60.1L250.82 43.91L248.53 46.2zM243.94 45.06 a5.73 5.73 0 1 0 11.46 0 a5.73 5.73 0 1 0 -11.46 0zM284.41 48.47L287.39 47.23L278.79 26.45L275.8 27.69zM271.56 27.07 a5.73 5.73 0 1 0 11.46 0 a5.73 5.73 0 1 0 -11.46 0zM307.92 43.15L311.16 43.15L311.16 27.22L307.92 27.22zM303.81 27.22 a5.73 5.73 0 1 0 11.46 0 a5.73 5.73 0 1 0 -11.46 0zM331.69 47.23L334.68 48.47L342.53 29.51L339.54 28.27zM335.31 28.89 a5.73 5.73 0 1 0 11.46 0 a5.73 5.73 0 1 0 -11.46 0zM352.08 60.1L354.37 62.39L362.94 53.82L360.65 51.53zM356.07 52.67 a5.73 5.73 0 1 0 11.46 0 a5.73 5.73 0 1 0 -11.46 0zM366 79.79L367.24 82.78L375.95 79.17L374.71 76.18zM369.6 77.68 a5.73 5.73 0 1 0 11.46 0 a5.73 5.73 0 1 0 -11.46 0zM247.74 104.93 a61.8 61.8 0 1 0 123.6 0 a61.8 61.8 0 1 0 -123.6 0z" fill="rgba(199, 114, 186, 1)"></path><path d="M366.81 81.69 A60.8 60.8 0 0 1 301.17 166.16M301.17 166.16 A123.6 123.6 0 0 0 366.81 81.69" fill="#b347a3" fill-rule="nonzero"></path><path d="M271.61 146.94 a12.36 12.36 0 1 0 24.72 0 a12.36 12.36 0 1 0 -24.72 0zM283.71 75.89 a12.36 12.36 0 1 0 24.72 0 a12.36 12.36 0 1 0 -24.72 0zM317.29 116.73 a12.36 12.36 0 1 0 24.72 0 a12.36 12.36 0 1 0 -24.72 0zM316.79 47.32 a3.09 3.09 0 1 0 6.18 0 a3.09 3.09 0 1 0 -6.18 0zM253.98 130.71 a4.94 4.94 0 1 0 9.88 0 a4.94 4.94 0 1 0 -9.88 0zM348.04 76.16 a7.42 7.42 0 1 0 14.84 0 a7.42 7.42 0 1 0 -14.84 0zM259.1 81.66 a6.18 6.18 0 1 0 12.36 0 a6.18 6.18 0 1 0 -12.36 0zM357.18 103.42 a6.8 6.8 0 1 0 13.6 0 a6.8 6.8 0 1 0 -13.6 0zM322.53 81.39 a6.8 6.8 0 1 0 13.6 0 a6.8 6.8 0 1 0 -13.6 0zM293.32 106.64 a6.18 6.18 0 1 0 12.36 0 a6.18 6.18 0 1 0 -12.36 0z" fill="#b347a3" fill-rule="nonzero"></path><path d="M257.94 615.31L257.94 618.54L270.37 618.54L270.37 615.31zM264.64 616.93 a5.73 5.73 0 1 0 11.46 0 a5.73 5.73 0 1 0 -11.46 0zM253.85 639.07L252.62 642.06L271.44 649.86L272.68 646.87zM266.33 648.37 a5.73 5.73 0 1 0 11.46 0 a5.73 5.73 0 1 0 -11.46 0zM240.99 659.47L238.7 661.76L249.79 672.85L252.08 670.56zM245.21 671.71 a5.73 5.73 0 1 0 11.46 0 a5.73 5.73 0 1 0 -11.46 0zM221.3 673.38L218.31 674.62L229.56 701.79L232.55 700.56zM225.33 701.17 a5.73 5.73 0 1 0 11.46 0 a5.73 5.73 0 1 0 -11.46 0zM197.78 678.71L194.54 678.71L194.54 695.29L197.78 695.29zM190.43 695.29 a5.73 5.73 0 1 0 11.46 0 a5.73 5.73 0 1 0 -11.46 0zM174.01 674.62L171.02 673.38L166.43 684.48L169.42 685.72zM162.19 685.1 a5.73 5.73 0 1 0 11.46 0 a5.73 5.73 0 1 0 -11.46 0zM153.62 661.76L151.33 659.47L143.75 667.05L146.04 669.34zM139.16 668.19 a5.73 5.73 0 1 0 11.46 0 a5.73 5.73 0 1 0 -11.46 0zM139.7 642.06L138.46 639.07L129.95 642.6L131.18 645.59zM124.83 644.1 a5.73 5.73 0 1 0 11.46 0 a5.73 5.73 0 1 0 -11.46 0zM134.38 618.54L134.38 615.31L111.75 615.31L111.75 618.54zM106.02 616.93 a5.73 5.73 0 1 0 11.46 0 a5.73 5.73 0 1 0 -11.46 0zM138.46 594.78L139.7 591.79L118.3 582.92L117.06 585.91zM111.95 584.42 a5.73 5.73 0 1 0 11.46 0 a5.73 5.73 0 1 0 -11.46 0zM151.33 574.39L153.62 572.1L138.21 556.69L135.92 558.98zM131.34 557.83 a5.73 5.73 0 1 0 11.46 0 a5.73 5.73 0 1 0 -11.46 0zM171.02 560.47L174.01 559.23L168.31 545.48L165.32 546.71zM161.09 546.09 a5.73 5.73 0 1 0 11.46 0 a5.73 5.73 0 1 0 -11.46 0zM194.54 555.15L197.78 555.15L197.78 547.25L194.54 547.25zM190.43 547.25 a5.73 5.73 0 1 0 11.46 0 a5.73 5.73 0 1 0 -11.46 0zM218.31 559.23L221.3 560.47L224.41 552.94L221.42 551.7zM217.19 552.32 a5.73 5.73 0 1 0 11.46 0 a5.73 5.73 0 1 0 -11.46 0zM238.7 572.1L240.99 574.39L258.52 556.85L256.24 554.56zM251.65 555.71 a5.73 5.73 0 1 0 11.46 0 a5.73 5.73 0 1 0 -11.46 0zM252.62 591.79L253.85 594.78L265.63 589.9L264.4 586.91zM259.28 588.41 a5.73 5.73 0 1 0 11.46 0 a5.73 5.73 0 1 0 -11.46 0zM134.36 616.93 a61.8 61.8 0 1 0 123.6 0 a61.8 61.8 0 1 0 -123.6 0z" fill="rgba(199, 114, 186, 1)"></path><path d="M134.36 617.26 A60.8 60.8 0 0 1 226.66 563.18M226.66 563.18 A123.6 123.6 0 0 0 134.36 617.26" fill="#b347a3" fill-rule="nonzero"></path><path d="M229.1 626.56 a12.36 12.36 0 1 0 24.72 0 a12.36 12.36 0 1 0 -24.72 0zM177.76 577.43 a12.36 12.36 0 1 0 24.72 0 a12.36 12.36 0 1 0 -24.72 0zM219.15 605.03 a3.71 3.71 0 1 0 7.42 0 a3.71 3.71 0 1 0 -7.42 0zM236.64 580.01 a3.71 3.71 0 1 0 7.42 0 a3.71 3.71 0 1 0 -7.42 0zM156.33 576.65 a4.33 4.33 0 1 0 8.66 0 a4.33 4.33 0 1 0 -8.66 0zM148.53 624.53 a12.36 12.36 0 1 0 24.72 0 a12.36 12.36 0 1 0 -24.72 0zM192.65 657.14 a12.36 12.36 0 1 0 24.72 0 a12.36 12.36 0 1 0 -24.72 0zM187.09 608.74 a6.8 6.8 0 1 0 13.6 0 a6.8 6.8 0 1 0 -13.6 0zM140.94 590.13 a3.09 3.09 0 1 0 6.18 0 a3.09 3.09 0 1 0 -6.18 0zM220.31 586.37 a2.47 2.47 0 1 0 4.94 0 a2.47 2.47 0 1 0 -4.94 0z" fill="#b347a3" fill-rule="nonzero"></path><path d="M1226.25 936.42L1226.25 940.47L1261.27 940.47L1261.27 936.42zM1254.11 938.45 a7.16 7.16 0 1 0 14.32 0 a7.16 7.16 0 1 0 -14.32 0zM1221.15 966.13L1219.6 969.87L1232.75 975.31L1234.3 971.57zM1226.36 973.44 a7.16 7.16 0 1 0 14.32 0 a7.16 7.16 0 1 0 -14.32 0zM1205.07 991.62L1202.21 994.48L1218.38 1010.66L1221.24 1007.8zM1212.65 1009.23 a7.16 7.16 0 1 0 14.32 0 a7.16 7.16 0 1 0 -14.32 0zM1180.45 1009.02L1176.71 1010.56L1190.73 1044.41L1194.47 1042.86zM1185.44 1043.63 a7.16 7.16 0 1 0 14.32 0 a7.16 7.16 0 1 0 -14.32 0zM1151.05 1015.67L1147.01 1015.67L1147.01 1035.7L1151.05 1035.7zM1141.87 1035.7 a7.16 7.16 0 1 0 14.32 0 a7.16 7.16 0 1 0 -14.32 0zM1121.35 1010.56L1117.61 1009.02L1108.35 1031.37L1112.09 1032.91zM1103.06 1032.14 a7.16 7.16 0 1 0 14.32 0 a7.16 7.16 0 1 0 -14.32 0zM1095.86 994.48L1093 991.62L1073.54 1011.07L1076.4 1013.93zM1067.81 1012.5 a7.16 7.16 0 1 0 14.32 0 a7.16 7.16 0 1 0 -14.32 0zM1078.46 969.87L1076.91 966.13L1046.14 978.88L1047.69 982.61zM1039.75 980.74 a7.16 7.16 0 1 0 14.32 0 a7.16 7.16 0 1 0 -14.32 0zM1071.81 940.47L1071.81 936.42L1058.25 936.42L1058.25 940.47zM1051.09 938.45 a7.16 7.16 0 1 0 14.32 0 a7.16 7.16 0 1 0 -14.32 0zM1076.91 910.76L1078.46 907.02L1051.27 895.76L1049.72 899.5zM1043.34 897.63 a7.16 7.16 0 1 0 14.32 0 a7.16 7.16 0 1 0 -14.32 0zM1093 885.27L1095.86 882.41L1078.88 865.43L1076.02 868.29zM1070.29 866.86 a7.16 7.16 0 1 0 14.32 0 a7.16 7.16 0 1 0 -14.32 0zM1117.61 867.87L1121.35 866.33L1117.57 857.2L1113.83 858.75zM1108.54 857.97 a7.16 7.16 0 1 0 14.32 0 a7.16 7.16 0 1 0 -14.32 0zM1147.01 861.22L1151.05 861.22L1151.05 845.68L1147.01 845.68zM1141.87 845.68 a7.16 7.16 0 1 0 14.32 0 a7.16 7.16 0 1 0 -14.32 0zM1176.71 866.33L1180.45 867.87L1186.65 852.91L1182.91 851.36zM1177.62 852.13 a7.16 7.16 0 1 0 14.32 0 a7.16 7.16 0 1 0 -14.32 0zM1202.21 882.41L1205.07 885.27L1218.88 871.46L1216.02 868.6zM1210.29 870.03 a7.16 7.16 0 1 0 14.32 0 a7.16 7.16 0 1 0 -14.32 0zM1219.6 907.02L1221.15 910.76L1238 903.78L1236.45 900.04zM1230.07 901.91 a7.16 7.16 0 1 0 14.32 0 a7.16 7.16 0 1 0 -14.32 0zM1071.78 938.45 a77.25 77.25 0 1 0 154.5 0 a77.25 77.25 0 1 0 -154.5 0z" fill="rgba(199, 114, 186, 1)"></path><path d="M1107.17 873.52 A76.25 76.25 0 0 1 1226.18 934.5M1226.18 934.5 A154.5 154.5 0 0 0 1107.17 873.52" fill="#b347a3" fill-rule="nonzero"></path><path d="M1140.38 874.92 a13.13 13.13 0 1 0 26.26 0 a13.13 13.13 0 1 0 -26.26 0zM1191.44 974.63 a11.59 11.59 0 1 0 23.18 0 a11.59 11.59 0 1 0 -23.18 0zM1122.2 956.45 a15.45 15.45 0 1 0 30.9 0 a15.45 15.45 0 1 0 -30.9 0zM1170.2 967.99 a3.09 3.09 0 1 0 6.18 0 a3.09 3.09 0 1 0 -6.18 0zM1081.59 924.1 a15.45 15.45 0 1 0 30.9 0 a15.45 15.45 0 1 0 -30.9 0zM1082.97 964.34 a9.27 9.27 0 1 0 18.54 0 a9.27 9.27 0 1 0 -18.54 0zM1148.01 991.88 a8.5 8.5 0 1 0 17 0 a8.5 8.5 0 1 0 -17 0zM1211.48 945.29 a4.63 4.63 0 1 0 9.26 0 a4.63 4.63 0 1 0 -9.26 0zM1126.54 911.59 a10.81 10.81 0 1 0 21.62 0 a10.81 10.81 0 1 0 -21.62 0zM1164.11 907.92 a5.41 5.41 0 1 0 10.82 0 a5.41 5.41 0 1 0 -10.82 0z" fill="#b347a3" fill-rule="nonzero"></path><path d="M2187.74 1114.48L2187.74 1120.96L2232.74 1120.96L2232.74 1114.48zM2221.28 1117.72 a11.46 11.46 0 1 0 22.92 0 a11.46 11.46 0 1 0 -22.92 0zM2179.57 1162.01L2177.09 1167.99L2216.09 1184.15L2218.57 1178.17zM2205.87 1181.16 a11.46 11.46 0 1 0 22.92 0 a11.46 11.46 0 1 0 -22.92 0zM2153.84 1202.8L2149.26 1207.38L2182.49 1240.6L2187.06 1236.03zM2173.32 1238.32 a11.46 11.46 0 1 0 22.92 0 a11.46 11.46 0 1 0 -22.92 0zM2114.45 1230.63L2108.47 1233.11L2130.12 1285.37L2136.1 1282.9zM2121.65 1284.14 a11.46 11.46 0 1 0 22.92 0 a11.46 11.46 0 1 0 -22.92 0zM2067.42 1241.28L2060.94 1241.28L2060.94 1269.3L2067.42 1269.3zM2052.72 1269.3 a11.46 11.46 0 1 0 22.92 0 a11.46 11.46 0 1 0 -22.92 0zM2019.89 1233.11L2013.91 1230.63L2006.39 1248.78L2012.37 1251.26zM1997.92 1250.02 a11.46 11.46 0 1 0 22.92 0 a11.46 11.46 0 1 0 -22.92 0zM1979.1 1207.38L1974.52 1202.8L1947.3 1230.02L1951.88 1234.6zM1938.13 1232.31 a11.46 11.46 0 1 0 22.92 0 a11.46 11.46 0 1 0 -22.92 0zM1951.27 1167.99L1948.79 1162.01L1896.97 1183.48L1899.45 1189.46zM1886.75 1186.47 a11.46 11.46 0 1 0 22.92 0 a11.46 11.46 0 1 0 -22.92 0zM1940.62 1120.96L1940.62 1114.48L1909.36 1114.48L1909.36 1120.96zM1897.9 1117.72 a11.46 11.46 0 1 0 22.92 0 a11.46 11.46 0 1 0 -22.92 0zM1948.79 1073.43L1951.27 1067.45L1897.08 1045L1894.6 1050.98zM1884.38 1047.99 a11.46 11.46 0 1 0 22.92 0 a11.46 11.46 0 1 0 -22.92 0zM1974.52 1032.64L1979.1 1028.06L1952.72 1001.69L1948.15 1006.26zM1938.98 1003.98 a11.46 11.46 0 1 0 22.92 0 a11.46 11.46 0 1 0 -22.92 0zM2013.91 1004.81L2019.89 1002.33L2007.79 973.13L2001.81 975.61zM1993.34 974.37 a11.46 11.46 0 1 0 22.92 0 a11.46 11.46 0 1 0 -22.92 0zM2060.94 994.16L2067.42 994.16L2067.42 969.09L2060.94 969.09zM2052.72 969.09 a11.46 11.46 0 1 0 22.92 0 a11.46 11.46 0 1 0 -22.92 0zM2108.47 1002.33L2114.45 1004.81L2137.34 949.56L2131.36 947.08zM2122.89 948.32 a11.46 11.46 0 1 0 22.92 0 a11.46 11.46 0 1 0 -22.92 0zM2149.26 1028.06L2153.84 1032.64L2180.49 1005.98L2175.92 1001.41zM2166.75 1003.69 a11.46 11.46 0 1 0 22.92 0 a11.46 11.46 0 1 0 -22.92 0zM2177.09 1067.45L2179.57 1073.43L2204.59 1063.06L2202.11 1057.08zM2191.89 1060.07 a11.46 11.46 0 1 0 22.92 0 a11.46 11.46 0 1 0 -22.92 0zM1940.58 1117.72 a123.6 123.6 0 1 0 247.2 0 a123.6 123.6 0 1 0 -247.2 0z" fill="rgba(199, 114, 186, 1)"></path><path d="M2066.49 994.14 A122.6 122.6 0 0 1 2170.18 1181.29M2170.18 1181.29 A247.2 247.2 0 0 0 2066.49 994.14" fill="#b347a3" fill-rule="nonzero"></path><path d="M1971.34 1059.17 a24.72 24.72 0 1 0 49.44 0 a24.72 24.72 0 1 0 -49.44 0zM2116.9 1105.58 a24.72 24.72 0 1 0 49.44 0 a24.72 24.72 0 1 0 -49.44 0zM1992.17 1139.64 a24.72 24.72 0 1 0 49.44 0 a24.72 24.72 0 1 0 -49.44 0zM2081.33 1040.28 a24.72 24.72 0 1 0 49.44 0 a24.72 24.72 0 1 0 -49.44 0zM2058.2 1170.77 a13.6 13.6 0 1 0 27.2 0 a13.6 13.6 0 1 0 -27.2 0zM2068.66 1124.48 a7.42 7.42 0 1 0 14.84 0 a7.42 7.42 0 1 0 -14.84 0zM2103.99 1221.5 a8.65 8.65 0 1 0 17.3 0 a8.65 8.65 0 1 0 -17.3 0zM2146.73 1190.23 a7.42 7.42 0 1 0 14.84 0 a7.42 7.42 0 1 0 -14.84 0zM1998.88 1193.16 a4.94 4.94 0 1 0 9.88 0 a4.94 4.94 0 1 0 -9.88 0zM2057.07 1085.55 a7.42 7.42 0 1 0 14.84 0 a7.42 7.42 0 1 0 -14.84 0z" fill="#b347a3" fill-rule="nonzero"></path></g><defs><mask id="SvgjsMask1046"><rect width="2500" height="2000" fill="#ffffff"></rect></mask><linearGradient x1="5%" y1="-6.25%" x2="95%" y2="106.25%" gradientUnits="userSpaceOnUse" id="SvgjsLinearGradient1047"><stop stop-color="rgba(14, 42, 71, 1)" offset="0"></stop><stop stop-color="rgba(14, 165, 233, 1)" offset="1"></stop></linearGradient></defs></svg>