<svg class="border shadow-md" viewBox="0 0 752.4 752.4" style="width: 752.4px; height: 752.4px;" xmlns="http://www.w3.org/2000/svg" preserveAspectRatio="none"><rect class="bg" id="bg" x="0" y="0" width="752.4" height="752.4" fill="#ffffff"/><g transform="rotate(0 376.2 376.2)"><path d="M -476.20 -45.24 S -478.00 -118.24&#10;            0.00 -45.24 201.20 -82.86&#10;            476.20 -45.24 704.30 -87.24&#10;            952.40 -45.24 987.60 -100.24&#10;            1428.60 -45.24 h 110 V 952.4 H -476.20 Z" fill="#FEECE0" id="-1"/><path d="M -476.20 30.00 S -248.10 -7.62&#10;            0.00 30.00 228.10 -19.00&#10;            476.20 30.00 704.30 -7.62&#10;            952.40 30.00 1180.50 -7.62&#10;            1428.60 30.00 h 110 V 952.4 H -476.20 Z" fill="#fbece2" id="0"/><path id="1" d="M -476.20 105.24 S -366.00 34.24&#10;            0.00 105.24 228.10 67.62&#10;            476.20 105.24 704.30 67.62&#10;            952.40 105.24 1073.60 31.24&#10;            1428.60 105.24 h 110 V 952.4 H -476.20 Z" fill="#f8ece4"/><path id="2" d="M -476.20 180.48 S -248.10 123.48&#10;            0.00 180.48 5.20 142.48&#10;            476.20 180.48 704.30 115.48&#10;            952.40 180.48 1162.60 107.48&#10;            1428.60 180.48 h 110 V 952.4 H -476.20 Z" fill="#f5ece6"/><path id="3" d="M -476.20 255.72 S -445.00 213.72&#10;            0.00 255.72 102.20 182.72&#10;            476.20 255.72 470.40 193.72&#10;            952.40 255.72 1115.60 218.10&#10;            1428.60 255.72 h 110 V 952.4 H -476.20 Z" fill="#f2ece8"/><path id="4" d="M -476.20 330.96 S -451.00 286.96&#10;            0.00 330.96 228.10 293.34&#10;            476.20 330.96 704.30 281.96&#10;            952.40 330.96 1015.60 284.96&#10;            1428.60 330.96 h 110 V 952.4 H -476.20 Z" fill="#efecea"/><path id="5" d="M -476.20 406.20 S -248.10 368.58&#10;            0.00 406.20 6.20 368.58&#10;            476.20 406.20 704.30 368.58&#10;            952.40 406.20 1084.60 363.20&#10;            1428.60 406.20 h 110 V 952.4 H -476.20 Z" fill="#ececec"/><path id="6" d="M -476.20 481.44 S -248.10 440.44&#10;            0.00 481.44 13.20 421.44&#10;            476.20 481.44 554.40 429.44&#10;            952.40 481.44 1159.60 417.44&#10;            1428.60 481.44 h 110 V 952.4 H -476.20 Z" fill="#e9ecee"/><path id="7" d="M -476.20 556.68 S -248.10 519.06&#10;            0.00 556.68 33.20 516.68&#10;            476.20 556.68 596.40 482.68&#10;            952.40 556.68 1180.50 493.68&#10;            1428.60 556.68 h 110 V 952.4 H -476.20 Z" fill="#e6ecf0"/><path id="8" d="M -476.20 631.92 S -248.10 581.92&#10;            0.00 631.92 151.20 594.30&#10;            476.20 631.92 704.30 571.92&#10;            952.40 631.92 979.60 575.92&#10;            1428.60 631.92 h 110 V 952.4 H -476.20 Z" fill="#e3ecf2"/><path id="9" d="M -476.20 707.16 S -248.10 642.16&#10;            0.00 707.16 228.10 635.16&#10;            476.20 707.16 581.40 659.16&#10;            952.40 707.16 1180.50 669.54&#10;            1428.60 707.16 h 110 V 952.4 H -476.20 Z" fill="#e0ecf4"/></g></svg>